<svg width="16" height="16" viewBox="0 0 16 16" fill="none" xmlns="http://www.w3.org/2000/svg">
<path fill-rule="evenodd" clip-rule="evenodd" d="M10.8333 2.00008H5.16667V0.666748H4.16667V2.00008H4C2.89543 2.00008 2 2.89551 2 4.00008V5.00008V5.33341V6.00008V6.33341V12.0001C2 13.1046 2.89543 14.0001 4 14.0001H12C13.1046 14.0001 14 13.1046 14 12.0001V6.33341V6.00008V5.33341V5.00008V4.00008C14 2.89551 13.1046 2.00008 12 2.00008H11.8333V0.666748H10.8333V2.00008ZM4 3.00008H12C12.5523 3.00008 13 3.4478 13 4.00008V5.00008H3V4.00008C3 3.4478 3.44772 3.00008 4 3.00008ZM13 6.33341H3V12.0001C3 12.5524 3.44772 13.0001 4 13.0001H12C12.5523 13.0001 13 12.5524 13 12.0001V6.33341ZM4.66667 7.33341H8V10.6667H4.66667V7.33341Z" fill="#F59A3E"/>
</svg>
