<svg width="16" height="16" viewBox="0 0 16 16" fill="none" xmlns="http://www.w3.org/2000/svg">
<path fill-rule="evenodd" clip-rule="evenodd" d="M12.4142 10.9999L12.7071 11.2928L13.6666 12.2524V2.66659C13.6666 2.48554 13.5144 2.33325 13.3333 2.33325H2.66665C2.4856 2.33325 2.33331 2.48554 2.33331 2.66659V10.6666C2.33331 10.8476 2.4856 10.9999 2.66665 10.9999H12H12.4142ZM14.6666 13.2524V2.66659C14.6666 1.93325 14.0666 1.33325 13.3333 1.33325H2.66665C1.93331 1.33325 1.33331 1.93325 1.33331 2.66659V10.6666C1.33331 11.3999 1.93331 11.9999 2.66665 11.9999H12L13.6666 13.6666L14.6666 14.6666V13.2524ZM7.33331 3.33325H8.66665V7.99992H7.33331V3.33325ZM8.66665 8.66658H7.33331V9.99992H8.66665V8.66658Z" fill="#F59A3E"/>
</svg>
