<svg width="24" height="24" viewBox="0 0 24 24" fill="none" xmlns="http://www.w3.org/2000/svg">
<path d="M21.7505 11.4297C21.7505 11.4297 16.3352 6 12.0006 6C7.66599 6 2.25068 11.4297 2.25068 11.4297C1.91791 11.7446 1.91498 12.2614 2.25068 12.5703C2.25068 12.5703 7.66599 18 12.0006 18C16.3352 18 21.7505 12.5703 21.7505 12.5703C22.0803 12.2554 22.0862 11.7416 21.7505 11.4297ZM12.0418 16.3723C9.65953 16.3723 7.72489 14.4237 7.72489 12.0178C7.72489 9.61192 9.65661 7.66337 12.0418 7.66337C14.427 7.66337 16.3587 9.61483 16.3587 12.0178C16.3587 14.4208 14.4241 16.3723 12.0418 16.3723Z" fill="#9E9E9E"/>
<path d="M11.9917 9.20312C10.4781 9.20312 9.25018 10.4477 9.25018 11.9774C9.25018 13.5071 10.4781 14.7516 11.9917 14.7516C13.5053 14.7516 14.7332 13.5071 14.7332 11.9774C14.7332 10.4477 13.5053 9.20312 11.9917 9.20312ZM13.0253 11.9863C12.5571 11.9863 12.1743 11.6001 12.1743 11.1219C12.1743 10.6437 12.5571 10.2576 13.0253 10.2576C13.4935 10.2576 13.8763 10.6437 13.8763 11.1219C13.8763 11.6001 13.4994 11.9863 13.0253 11.9863Z" fill="#9E9E9E"/>
</svg>
