<svg width="48" height="48" viewBox="0 0 48 48" fill="none" xmlns="http://www.w3.org/2000/svg">
<path fill-rule="evenodd" clip-rule="evenodd" d="M1 8C1 5.23857 3.23858 3 6 3H40C42.7614 3 45 5.23858 45 8V20H43V8C43 6.34315 41.6569 5 40 5H6C4.34315 5 3 6.34315 3 8V32C3 33.6569 4.34314 35 6 35H32.5455V37H28V42H32V44H16V42H20V37H6C3.23857 37 1 34.7614 1 32V8ZM36 26H46V40H36V26ZM36 22C34.8954 22 34 22.8954 34 24V42C34 43.1046 34.8954 44 36 44H46C47.1046 44 48 43.1046 48 42V24C48 22.8954 47.1046 22 46 22H36ZM23.7961 17.5279L22 12L20.2039 17.5279H14.3916L19.0938 20.9443L17.2977 26.4721L22 23.0557L26.7023 26.4721L24.9062 20.9443L29.6085 17.5279H23.7961Z" fill="#668099"/>
</svg>
