<svg width="48" height="48" viewBox="0 0 48 48" fill="none" xmlns="http://www.w3.org/2000/svg">
<path fill-rule="evenodd" clip-rule="evenodd" d="M12 6V2H16V6H32V2H36V6H38C40.2091 6 42 7.79086 42 10V16V18V38C42 40.2091 40.2091 42 38 42H10C7.79086 42 6 40.2091 6 38V18V16V10C6 7.79086 7.79086 6 10 6H12ZM36 8H32H16H12H10C8.89543 8 8 8.89543 8 10V16H40V10C40 8.89543 39.1046 8 38 8H36ZM40 18H8V38C8 39.1046 8.89543 40 10 40H38C39.1046 40 40 39.1046 40 38V18ZM10 20H18V26H10V20ZM20 20H28V26H20V20ZM38 20H30V26H38V20Z" fill="#668099"/>
</svg>
