<svg width="32" height="32" viewBox="0 0 32 32" fill="none" xmlns="http://www.w3.org/2000/svg">
<path opacity="0.6" d="M4 0.5H28C29.933 0.5 31.5 2.067 31.5 4V28C31.5 29.933 29.933 31.5 28 31.5H4C2.067 31.5 0.5 29.933 0.5 28V4C0.5 2.067 2.067 0.5 4 0.5Z" fill="#E0E0E0" stroke="white"/>
<path d="M24.32 16.5867C24.32 16.0533 24.2666 15.4667 24.16 14.9333H16.48V18.08H20.9066C20.7466 19.0933 20.16 20 19.2533 20.5867V22.6133H21.8666C23.4133 21.1733 24.32 19.0933 24.32 16.5867Z" fill="#4285F4"/>
<path d="M16.48 24.5866C18.6667 24.5866 20.5333 23.8399 21.8667 22.6133L19.2533 20.5866C18.5067 21.0666 17.6 21.3866 16.48 21.3866C14.3467 21.3866 12.5333 19.9466 11.8933 18.0266H9.17334V20.1066C10.56 22.8266 13.3867 24.5866 16.48 24.5866Z" fill="#34A853"/>
<path d="M11.8933 17.9732C11.5733 16.9599 11.5733 15.8399 11.8933 14.8266V12.7466H9.17334C8 15.0399 8 17.7599 9.17334 20.0532L11.8933 17.9732Z" fill="#FBBC04"/>
<path d="M16.4267 11.5199C17.6 11.5199 18.72 11.9466 19.5733 12.7466L21.92 10.3999C20.4267 9.01327 18.5067 8.2666 16.48 8.2666C13.3867 8.2666 10.56 10.0266 9.17334 12.7466L11.8933 14.8266C12.48 12.9599 14.2933 11.5199 16.4267 11.5199Z" fill="#EA4335"/>
</svg>
