<svg width="32" height="32" viewBox="0 0 32 32" fill="none" xmlns="http://www.w3.org/2000/svg">
<path opacity="0.6" d="M4 0.5H28C29.933 0.5 31.5 2.067 31.5 4V28C31.5 29.933 29.933 31.5 28 31.5H4C2.067 31.5 0.5 29.933 0.5 28V4C0.5 2.067 2.067 0.5 4 0.5Z" fill="#E0E0E0" stroke="white"/>
<path d="M18.8517 11.0278H13.1083V21.35H18.8517V11.0278Z" fill="#7673C0"/>
<path d="M13.4729 16.1899C13.4707 14.1753 14.3953 12.2718 15.98 11.0279C13.2887 8.91285 9.42382 9.22093 7.10156 11.7357C4.7793 14.2504 4.7793 18.1275 7.10156 20.6423C9.42382 23.157 13.2887 23.4651 15.98 21.35C14.3958 20.1066 13.4713 18.2038 13.4729 16.1899Z" fill="#EB001B"/>
<path d="M26.5992 16.1896C26.5986 18.7021 25.1639 20.9939 22.904 22.092C20.6441 23.1901 17.9557 22.9019 15.98 21.3497C17.5635 20.1052 18.4881 18.2027 18.4881 16.1887C18.4881 14.1747 17.5635 12.2721 15.98 11.0277C17.9557 9.47437 20.6449 9.1855 22.9054 10.2838C25.166 11.382 26.601 13.6746 26.6011 16.1878L26.5992 16.1896Z" fill="#00A1DF"/>
</svg>
