<svg width="32" height="32" viewBox="0 0 32 32" fill="none" xmlns="http://www.w3.org/2000/svg">
<path opacity="0.6" d="M4 0.5H28C29.933 0.5 31.5 2.067 31.5 4V28C31.5 29.933 29.933 31.5 28 31.5H4C2.067 31.5 0.5 29.933 0.5 28V4C0.5 2.067 2.067 0.5 4 0.5Z" fill="#E0E0E0" stroke="white"/>
<path d="M17.6041 13.528L16.0605 16.8724H15.9039V12.8H13.711V19.6917H15.572C16.0607 19.6917 16.5048 19.4076 16.7097 18.9638L18.2532 15.6194H18.4099V19.6917H20.6027V12.8H18.7418C18.253 12.8 17.8088 13.0842 17.6041 13.528ZM9.37733 13.7058L8.46396 16.8724H8.30726L7.39389 13.7058C7.23917 13.1694 6.74818 12.8 6.18988 12.8H4V19.6917H6.19286V15.6194H6.34945L7.60242 19.6917H9.1688L10.4218 15.6194H10.5785V19.6917H12.7712V12.8H10.5813C10.023 12.8 9.53216 13.1694 9.37733 13.7058ZM21.5424 15.9326V19.6917H23.731V17.499H26.0846C27.1072 17.499 27.9747 16.8445 28.2976 15.9326H21.5424ZM26.0846 12.8H21.2292C21.524 14.4038 22.9274 15.6194 24.6163 15.6194H28.3869C28.4177 15.4676 28.4341 15.3104 28.4341 15.1495C28.4341 13.8519 27.3823 12.8 26.0846 12.8Z" fill="#26A24C"/>
</svg>
