<svg width="32" height="32" viewBox="0 0 32 32" fill="none" xmlns="http://www.w3.org/2000/svg">
<path opacity="0.6" d="M4 0.5H28C29.933 0.5 31.5 2.067 31.5 4V28C31.5 29.933 29.933 31.5 28 31.5H4C2.067 31.5 0.5 29.933 0.5 28V4C0.5 2.067 2.067 0.5 4 0.5Z" fill="#E0E0E0" stroke="white"/>
<path d="M15.2916 12.4335L13.6596 20.0613H11.6866L13.3187 12.4335H15.2916ZM23.5935 17.3588L24.6324 14.4944L25.2302 17.3588H23.5935ZM25.795 20.0613H27.6202L26.0276 12.4335H24.3427C23.9643 12.4335 23.6448 12.6537 23.5028 12.9931L20.5424 20.0613H22.6143L23.0258 18.9222H25.5574L25.795 20.0613ZM20.6453 17.5709C20.6537 15.5576 17.8609 15.4466 17.8804 14.5473C17.8861 14.2736 18.147 13.9827 18.7171 13.9082C19.0003 13.8712 19.7789 13.8428 20.663 14.2497L21.0092 12.6322C20.5345 12.4597 19.9233 12.2939 19.1635 12.2939C17.2132 12.2939 15.8403 13.3309 15.8287 14.8157C15.8164 15.9137 16.8086 16.5262 17.5565 16.8914C18.325 17.2654 18.5834 17.5048 18.5801 17.8392C18.575 18.3513 17.9668 18.5769 17.3994 18.5858C16.4071 18.6015 15.8315 18.318 15.3724 18.1041L15.0148 19.7754C15.4759 19.9872 16.3268 20.1712 17.2096 20.1807C19.2823 20.1807 20.6385 19.1564 20.6453 17.5709ZM12.472 12.4335L9.27495 20.0613H7.18882L5.61575 13.9737C5.5201 13.5987 5.43712 13.4616 5.14645 13.3037C4.67274 13.0463 3.88926 12.8048 3.19995 12.655L3.2471 12.4335H6.60454C7.03246 12.4335 7.41742 12.7182 7.51454 13.2111L8.34551 17.6254L10.399 12.4335H12.472Z" fill="#182E66"/>
</svg>
