<svg width="172" height="32" viewBox="0 0 172 32" fill="none" xmlns="http://www.w3.org/2000/svg">
<rect width="172" height="32" rx="16" fill="#4539DF"/>
<path d="M38.5625 13.4375C38.5625 13.9961 38.377 14.4531 38.0059 14.8086C37.6387 15.1641 37.1289 15.3906 36.4766 15.4883V15.5234C37.2266 15.6133 37.7969 15.8359 38.1875 16.1914C38.582 16.543 38.7793 17.0039 38.7793 17.5742C38.7793 18.3711 38.4668 18.9941 37.8418 19.4434C37.2207 19.8926 36.3613 20.1172 35.2637 20.1172C34.123 20.1172 33.2109 19.9629 32.5273 19.6543V18.4297C32.9062 18.6094 33.3301 18.748 33.7988 18.8457C34.2715 18.9434 34.7031 18.9922 35.0938 18.9922C36.5977 18.9922 37.3496 18.5 37.3496 17.5156C37.3496 17.0625 37.123 16.7168 36.6699 16.4785C36.2207 16.2402 35.5527 16.1211 34.666 16.1211H33.6348V14.9961H34.6016C36.3086 14.9961 37.1621 14.541 37.1621 13.6309C37.1621 13.2676 37.0156 12.9805 36.7227 12.7695C36.4336 12.5586 36.0273 12.4531 35.5039 12.4531C35.0898 12.4531 34.6953 12.5078 34.3203 12.6172C33.9453 12.7266 33.5566 12.9121 33.1543 13.1738L32.5156 12.2246C33.3945 11.6152 34.4297 11.3105 35.6211 11.3105C36.5273 11.3105 37.2441 11.5039 37.7715 11.8906C38.2988 12.2773 38.5625 12.793 38.5625 13.4375ZM44.4102 20L44.1348 19.0977H44.0879C43.7754 19.4922 43.4609 19.7617 43.1445 19.9062C42.8281 20.0469 42.4219 20.1172 41.9258 20.1172C41.2891 20.1172 40.791 19.9453 40.4316 19.6016C40.0762 19.2578 39.8984 18.7715 39.8984 18.1426C39.8984 17.4746 40.1465 16.9707 40.6426 16.6309C41.1387 16.291 41.8945 16.1055 42.9102 16.0742L44.0293 16.0391V15.6934C44.0293 15.2793 43.9316 14.9707 43.7363 14.7676C43.5449 14.5605 43.2461 14.457 42.8398 14.457C42.5078 14.457 42.1895 14.5059 41.8848 14.6035C41.5801 14.7012 41.2871 14.8164 41.0059 14.9492L40.5605 13.9648C40.9121 13.7812 41.2969 13.6426 41.7148 13.5488C42.1328 13.4512 42.5273 13.4023 42.8984 13.4023C43.7227 13.4023 44.3438 13.582 44.7617 13.9414C45.1836 14.3008 45.3945 14.8652 45.3945 15.6348V20H44.4102ZM42.3594 19.0625C42.8594 19.0625 43.2598 18.9238 43.5605 18.6465C43.8652 18.3652 44.0176 17.9727 44.0176 17.4688V16.9062L43.1855 16.9414C42.5371 16.9648 42.0645 17.0742 41.7676 17.2695C41.4746 17.4609 41.3281 17.7559 41.3281 18.1543C41.3281 18.4434 41.4141 18.668 41.5859 18.8281C41.7578 18.9844 42.0156 19.0625 42.3594 19.0625ZM53.5332 22.291H52.25V20H47.8086V22.291H46.5371V18.9336H47.0645C47.5254 18.2734 47.8906 17.4766 48.1602 16.543C48.4336 15.6055 48.5957 14.5977 48.6465 13.5195H52.584V18.9336H53.5332V22.291ZM51.2305 18.9336V14.5742H49.8359C49.7617 15.3789 49.6055 16.1719 49.3672 16.9531C49.1328 17.7344 48.8457 18.3945 48.5059 18.9336H51.2305ZM58.7891 20L58.5137 19.0977H58.4668C58.1543 19.4922 57.8398 19.7617 57.5234 19.9062C57.207 20.0469 56.8008 20.1172 56.3047 20.1172C55.668 20.1172 55.1699 19.9453 54.8105 19.6016C54.4551 19.2578 54.2773 18.7715 54.2773 18.1426C54.2773 17.4746 54.5254 16.9707 55.0215 16.6309C55.5176 16.291 56.2734 16.1055 57.2891 16.0742L58.4082 16.0391V15.6934C58.4082 15.2793 58.3105 14.9707 58.1152 14.7676C57.9238 14.5605 57.625 14.457 57.2188 14.457C56.8867 14.457 56.5684 14.5059 56.2637 14.6035C55.959 14.7012 55.666 14.8164 55.3848 14.9492L54.9395 13.9648C55.291 13.7812 55.6758 13.6426 56.0938 13.5488C56.5117 13.4512 56.9062 13.4023 57.2773 13.4023C58.1016 13.4023 58.7227 13.582 59.1406 13.9414C59.5625 14.3008 59.7734 14.8652 59.7734 15.6348V20H58.7891ZM56.7383 19.0625C57.2383 19.0625 57.6387 18.9238 57.9395 18.6465C58.2441 18.3652 58.3965 17.9727 58.3965 17.4688V16.9062L57.5645 16.9414C56.916 16.9648 56.4434 17.0742 56.1465 17.2695C55.8535 17.4609 55.707 17.7559 55.707 18.1543C55.707 18.4434 55.793 18.668 55.9648 18.8281C56.1367 18.9844 56.3945 19.0625 56.7383 19.0625ZM66.5645 13.5195V14.5977H64.4551V20H63.0723V14.5977H60.9629V13.5195H66.5645ZM69.1895 16.1094H70.8125C72.6211 16.1094 73.5254 16.7344 73.5254 17.9844C73.5254 18.6445 73.2949 19.1465 72.834 19.4902C72.373 19.8301 71.6992 20 70.8125 20H67.8125V13.5195H69.1895V16.1094ZM72.1426 18.0195C72.1426 17.6953 72.0195 17.4688 71.7734 17.3398C71.5273 17.2109 71.1797 17.1465 70.7305 17.1465H69.1895V18.9805H70.7539C71.207 18.9805 71.5508 18.8984 71.7852 18.7344C72.0234 18.5703 72.1426 18.332 72.1426 18.0195ZM83.7969 15.1777C83.7969 15.9434 83.3496 16.4062 82.4551 16.5664V16.6133C82.9551 16.6719 83.3379 16.8301 83.6035 17.0879C83.8691 17.3457 84.002 17.6797 84.002 18.0898C84.002 18.7031 83.7676 19.1758 83.2988 19.5078C82.834 19.8359 82.1562 20 81.2656 20H78.1719V13.5195H81.2539C82.9492 13.5195 83.7969 14.0723 83.7969 15.1777ZM82.5898 18.0078C82.5898 17.6953 82.4688 17.4746 82.2266 17.3457C81.9844 17.2129 81.6211 17.1465 81.1367 17.1465H79.5488V18.9805H81.1719C82.1172 18.9805 82.5898 18.6562 82.5898 18.0078ZM82.4199 15.2949C82.4199 15.0371 82.3184 14.8516 82.1152 14.7383C81.916 14.6211 81.6172 14.5625 81.2188 14.5625H79.5488V16.1211H81.0137C81.4746 16.1211 81.8242 16.0625 82.0625 15.9453C82.3008 15.8242 82.4199 15.6074 82.4199 15.2949ZM91.1738 16.748C91.1738 17.8066 90.9023 18.6328 90.3594 19.2266C89.8164 19.8203 89.0605 20.1172 88.0918 20.1172C87.4863 20.1172 86.9512 19.9805 86.4863 19.707C86.0215 19.4336 85.6641 19.041 85.4141 18.5293C85.1641 18.0176 85.0391 17.4238 85.0391 16.748C85.0391 15.6973 85.3086 14.877 85.8477 14.2871C86.3867 13.6973 87.1465 13.4023 88.127 13.4023C89.0645 13.4023 89.8066 13.7051 90.3535 14.3105C90.9004 14.9121 91.1738 15.7246 91.1738 16.748ZM86.457 16.748C86.457 18.2441 87.0098 18.9922 88.1152 18.9922C89.209 18.9922 89.7559 18.2441 89.7559 16.748C89.7559 15.2676 89.2051 14.5273 88.1035 14.5273C87.5254 14.5273 87.1055 14.7188 86.8438 15.1016C86.5859 15.4844 86.457 16.0332 86.457 16.748ZM98.4277 13.5195V20H97.0449V14.6094H94.1387V20H92.7617V13.5195H98.4277ZM103.689 20.1172C102.869 20.1172 102.232 19.8223 101.779 19.2324H101.697C101.752 19.7793 101.779 20.1113 101.779 20.2285V22.8828H100.402V13.5195H101.516C101.547 13.6406 101.611 13.9297 101.709 14.3867H101.779C102.209 13.7305 102.854 13.4023 103.713 13.4023C104.521 13.4023 105.15 13.6953 105.6 14.2812C106.053 14.8672 106.279 15.6895 106.279 16.748C106.279 17.8066 106.049 18.6328 105.588 19.2266C105.131 19.8203 104.498 20.1172 103.689 20.1172ZM103.355 14.5273C102.809 14.5273 102.408 14.6875 102.154 15.0078C101.904 15.3281 101.779 15.8398 101.779 16.543V16.748C101.779 17.5371 101.904 18.1094 102.154 18.4648C102.404 18.8164 102.812 18.9922 103.379 18.9922C103.855 18.9922 104.223 18.7969 104.48 18.4062C104.738 18.0156 104.867 17.459 104.867 16.7363C104.867 16.0098 104.738 15.4609 104.48 15.0898C104.227 14.7148 103.852 14.5273 103.355 14.5273ZM113.627 16.748C113.627 17.8066 113.355 18.6328 112.812 19.2266C112.27 19.8203 111.514 20.1172 110.545 20.1172C109.939 20.1172 109.404 19.9805 108.939 19.707C108.475 19.4336 108.117 19.041 107.867 18.5293C107.617 18.0176 107.492 17.4238 107.492 16.748C107.492 15.6973 107.762 14.877 108.301 14.2871C108.84 13.6973 109.6 13.4023 110.58 13.4023C111.518 13.4023 112.26 13.7051 112.807 14.3105C113.354 14.9121 113.627 15.7246 113.627 16.748ZM108.91 16.748C108.91 18.2441 109.463 18.9922 110.568 18.9922C111.662 18.9922 112.209 18.2441 112.209 16.748C112.209 15.2676 111.658 14.5273 110.557 14.5273C109.979 14.5273 109.559 14.7188 109.297 15.1016C109.039 15.4844 108.91 16.0332 108.91 16.748ZM117.828 20.1172C116.848 20.1172 116.102 19.832 115.59 19.2617C115.082 18.6875 114.828 17.8652 114.828 16.7949C114.828 15.7051 115.094 14.8672 115.625 14.2812C116.16 13.6953 116.932 13.4023 117.939 13.4023C118.623 13.4023 119.238 13.5293 119.785 13.7832L119.369 14.8906C118.787 14.6641 118.307 14.5508 117.928 14.5508C116.807 14.5508 116.246 15.2949 116.246 16.7832C116.246 17.5098 116.385 18.0566 116.662 18.4238C116.943 18.7871 117.354 18.9688 117.893 18.9688C118.506 18.9688 119.086 18.8164 119.633 18.5117V19.7129C119.387 19.8574 119.123 19.9609 118.842 20.0234C118.564 20.0859 118.227 20.1172 117.828 20.1172ZM129.898 15.1777C129.898 15.9434 129.451 16.4062 128.557 16.5664V16.6133C129.057 16.6719 129.439 16.8301 129.705 17.0879C129.971 17.3457 130.104 17.6797 130.104 18.0898C130.104 18.7031 129.869 19.1758 129.4 19.5078C128.936 19.8359 128.258 20 127.367 20H124.273V13.5195H127.355C129.051 13.5195 129.898 14.0723 129.898 15.1777ZM128.691 18.0078C128.691 17.6953 128.57 17.4746 128.328 17.3457C128.086 17.2129 127.723 17.1465 127.238 17.1465H125.65V18.9805H127.273C128.219 18.9805 128.691 18.6562 128.691 18.0078ZM128.521 15.2949C128.521 15.0371 128.42 14.8516 128.217 14.7383C128.018 14.6211 127.719 14.5625 127.32 14.5625H125.65V16.1211H127.115C127.576 16.1211 127.926 16.0625 128.164 15.9453C128.402 15.8242 128.521 15.6074 128.521 15.2949ZM135.857 13.5195V15.8867C135.857 16.5508 136.201 16.8828 136.889 16.8828C137.221 16.8828 137.545 16.8379 137.861 16.748C138.178 16.6543 138.518 16.5059 138.881 16.3027V13.5195H140.258V20H138.881V17.252C138.502 17.4863 138.135 17.6602 137.779 17.7734C137.428 17.8828 137.043 17.9375 136.625 17.9375C135.949 17.9375 135.422 17.7637 135.043 17.416C134.664 17.0645 134.475 16.5742 134.475 15.9453V13.5195H135.857ZM146.281 20L146.006 19.0977H145.959C145.646 19.4922 145.332 19.7617 145.016 19.9062C144.699 20.0469 144.293 20.1172 143.797 20.1172C143.16 20.1172 142.662 19.9453 142.303 19.6016C141.947 19.2578 141.77 18.7715 141.77 18.1426C141.77 17.4746 142.018 16.9707 142.514 16.6309C143.01 16.291 143.766 16.1055 144.781 16.0742L145.9 16.0391V15.6934C145.9 15.2793 145.803 14.9707 145.607 14.7676C145.416 14.5605 145.117 14.457 144.711 14.457C144.379 14.457 144.061 14.5059 143.756 14.6035C143.451 14.7012 143.158 14.8164 142.877 14.9492L142.432 13.9648C142.783 13.7812 143.168 13.6426 143.586 13.5488C144.004 13.4512 144.398 13.4023 144.77 13.4023C145.594 13.4023 146.215 13.582 146.633 13.9414C147.055 14.3008 147.266 14.8652 147.266 15.6348V20H146.281ZM144.23 19.0625C144.73 19.0625 145.131 18.9238 145.432 18.6465C145.736 18.3652 145.889 17.9727 145.889 17.4688V16.9062L145.057 16.9414C144.408 16.9648 143.936 17.0742 143.639 17.2695C143.346 17.4609 143.199 17.7559 143.199 18.1543C143.199 18.4434 143.285 18.668 143.457 18.8281C143.629 18.9844 143.887 19.0625 144.23 19.0625ZM154.057 13.5195V14.5977H151.947V20H150.564V14.5977H148.455V13.5195H154.057ZM158.135 20.1172C157.127 20.1172 156.338 19.8242 155.768 19.2383C155.201 18.6484 154.918 17.8379 154.918 16.8066C154.918 15.748 155.182 14.916 155.709 14.3105C156.236 13.7051 156.961 13.4023 157.883 13.4023C158.738 13.4023 159.414 13.6621 159.91 14.1816C160.406 14.7012 160.654 15.416 160.654 16.3262V17.0703H156.336C156.355 17.6992 156.525 18.1836 156.846 18.5234C157.166 18.8594 157.617 19.0273 158.199 19.0273C158.582 19.0273 158.938 18.9922 159.266 18.9219C159.598 18.8477 159.953 18.7266 160.332 18.5586V19.6777C159.996 19.8379 159.656 19.9512 159.312 20.0176C158.969 20.084 158.576 20.1172 158.135 20.1172ZM157.883 14.4453C157.445 14.4453 157.094 14.584 156.828 14.8613C156.566 15.1387 156.41 15.543 156.359 16.0742H159.301C159.293 15.5391 159.164 15.1348 158.914 14.8613C158.664 14.584 158.32 14.4453 157.883 14.4453Z" fill="white"/>
<path d="M16 4C9.38125 4 4 9.38125 4 16C4 22.6187 9.38125 28 16 28C22.6187 28 28 22.6187 28 16C28 9.38125 22.6187 4 16 4Z" fill="#419FD9"/>
<path fill-rule="evenodd" clip-rule="evenodd" d="M18.6677 21.942C19.5065 22.309 19.821 21.5401 19.821 21.5401L22.0402 10.3917C22.0227 9.64029 21.0093 10.0946 21.0093 10.0946L8.58519 14.9699C8.58519 14.9699 7.99108 15.1796 8.0435 15.5465C8.09592 15.9135 8.56772 16.0882 8.56772 16.0882L11.6956 17.1367C11.6956 17.1367 12.6392 20.2296 12.8314 20.8237C13.0061 21.4003 13.1634 21.4178 13.1634 21.4178C13.3381 21.4877 13.4954 21.3654 13.4954 21.3654L15.5224 19.5306L18.6677 21.942ZM19.2094 12.3662C19.2094 12.3662 19.6463 12.1041 19.6288 12.3662C19.6288 12.3662 19.6987 12.4012 19.4715 12.6458C19.2618 12.8555 14.3167 17.2939 13.6527 17.888C13.6003 17.923 13.5653 17.9754 13.5653 18.0453L13.3731 19.6879C13.3381 19.8626 13.111 19.8801 13.0586 19.7228L12.2373 17.0318C12.2023 16.927 12.2373 16.8046 12.3421 16.7347L19.2094 12.3662Z" fill="white"/>
</svg>
