<svg width="66" height="32" viewBox="0 0 66 32" fill="none" xmlns="http://www.w3.org/2000/svg">
<rect width="66" height="32" rx="16" fill="#4539DF"/>
<path d="M39.4062 20H38V16.5781C37.4727 16.7656 37.002 16.9004 36.5879 16.9824C36.1777 17.0645 35.7637 17.1055 35.3457 17.1055C34.5371 17.1055 33.9121 16.916 33.4707 16.5371C33.0332 16.1543 32.8145 15.6133 32.8145 14.9141V11.4336H34.2207V14.5859C34.2207 15.0312 34.3301 15.3633 34.5488 15.582C34.7715 15.8008 35.1348 15.9102 35.6387 15.9102C36.0098 15.9102 36.3711 15.877 36.7227 15.8105C37.0742 15.7402 37.5 15.6211 38 15.4531V11.4336H39.4062V20ZM45.5703 20L45.2949 19.0977H45.248C44.9355 19.4922 44.6211 19.7617 44.3047 19.9062C43.9883 20.0469 43.582 20.1172 43.0859 20.1172C42.4492 20.1172 41.9512 19.9453 41.5918 19.6016C41.2363 19.2578 41.0586 18.7715 41.0586 18.1426C41.0586 17.4746 41.3066 16.9707 41.8027 16.6309C42.2988 16.291 43.0547 16.1055 44.0703 16.0742L45.1895 16.0391V15.6934C45.1895 15.2793 45.0918 14.9707 44.8965 14.7676C44.7051 14.5605 44.4062 14.457 44 14.457C43.668 14.457 43.3496 14.5059 43.0449 14.6035C42.7402 14.7012 42.4473 14.8164 42.166 14.9492L41.7207 13.9648C42.0723 13.7812 42.457 13.6426 42.875 13.5488C43.293 13.4512 43.6875 13.4023 44.0586 13.4023C44.8828 13.4023 45.5039 13.582 45.9219 13.9414C46.3438 14.3008 46.5547 14.8652 46.5547 15.6348V20H45.5703ZM43.5195 19.0625C44.0195 19.0625 44.4199 18.9238 44.7207 18.6465C45.0254 18.3652 45.1777 17.9727 45.1777 17.4688V16.9062L44.3457 16.9414C43.6973 16.9648 43.2246 17.0742 42.9277 17.2695C42.6348 17.4609 42.4883 17.7559 42.4883 18.1543C42.4883 18.4434 42.5742 18.668 42.7461 18.8281C42.918 18.9844 43.1758 19.0625 43.5195 19.0625ZM53.3457 13.5195V14.5977H51.2363V20H49.8535V14.5977H47.7441V13.5195H53.3457Z" fill="white"/>
<path d="M16 4C9.38125 4 4 9.38125 4 16C4 22.6187 9.38125 28 16 28C22.6187 28 28 22.6187 28 16C28 9.38125 22.6187 4 16 4Z" fill="#419FD9"/>
<path fill-rule="evenodd" clip-rule="evenodd" d="M18.6677 21.9422C19.5065 22.3091 19.821 21.5403 19.821 21.5403L22.0402 10.3918C22.0228 9.64041 21.0093 10.0947 21.0093 10.0947L8.58521 14.97C8.58521 14.97 7.99109 15.1797 8.04351 15.5466C8.09594 15.9136 8.56774 16.0883 8.56774 16.0883L11.6956 17.1368C11.6956 17.1368 12.6392 20.2297 12.8314 20.8238C13.0061 21.4005 13.1634 21.4179 13.1634 21.4179C13.3382 21.4878 13.4954 21.3655 13.4954 21.3655L15.5224 19.5307L18.6677 21.9422ZM19.2094 12.3664C19.2094 12.3664 19.6463 12.1042 19.6288 12.3664C19.6288 12.3664 19.6987 12.4013 19.4716 12.6459C19.2619 12.8556 14.3167 17.294 13.6527 17.8882C13.6003 17.9231 13.5653 17.9755 13.5653 18.0454L13.3731 19.688C13.3382 19.8627 13.111 19.8802 13.0586 19.7229L12.2373 17.0319C12.2023 16.9271 12.2373 16.8048 12.3421 16.7349L19.2094 12.3664Z" fill="white"/>
</svg>
