<svg width="19" height="18" viewBox="0 0 19 18" fill="none" xmlns="http://www.w3.org/2000/svg">
<mask id="path-1-inside-1" fill="white">
<path fill-rule="evenodd" clip-rule="evenodd" d="M4 7C1.79 7 0 8.79 0 11C0 13.21 1.79 15 4 15C6.21 15 8 13.21 8 11C8 8.79 6.21 7 4 7ZM12.01 12C10.36 12 9.01 13.35 9.01 15C9.01 16.65 10.36 18 12.01 18C13.66 18 15.01 16.65 15.01 15C15.01 13.35 13.66 12 12.01 12ZM13.5 0C10.47 0 8 2.47 8 5.5C8 8.53 10.47 11 13.5 11C16.53 11 19 8.53 19 5.5C19 2.47 16.53 0 13.5 0Z"/>
</mask>
<path d="M4 6C1.23772 6 -1 8.23771 -1 11H1C1 9.34229 2.34228 8 4 8V6ZM-1 11C-1 13.7623 1.23772 16 4 16V14C2.34228 14 1 12.6577 1 11H-1ZM4 16C6.76228 16 9 13.7623 9 11H7C7 12.6577 5.65772 14 4 14V16ZM9 11C9 8.23771 6.76228 6 4 6V8C5.65772 8 7 9.34229 7 11H9ZM12.01 11C9.80772 11 8.01 12.7977 8.01 15H10.01C10.01 13.9023 10.9123 13 12.01 13V11ZM8.01 15C8.01 17.2023 9.80772 19 12.01 19V17C10.9123 17 10.01 16.0977 10.01 15H8.01ZM12.01 19C14.2123 19 16.01 17.2023 16.01 15H14.01C14.01 16.0977 13.1077 17 12.01 17V19ZM16.01 15C16.01 12.7977 14.2123 11 12.01 11V13C13.1077 13 14.01 13.9023 14.01 15H16.01ZM13.5 -1C9.91772 -1 7 1.91772 7 5.5H9C9 3.02228 11.0223 1 13.5 1V-1ZM7 5.5C7 9.08228 9.91772 12 13.5 12V10C11.0223 10 9 7.97772 9 5.5H7ZM13.5 12C17.0823 12 20 9.08228 20 5.5H18C18 7.97772 15.9777 10 13.5 10V12ZM20 5.5C20 1.91772 17.0823 -1 13.5 -1V1C15.9777 1 18 3.02228 18 5.5H20Z" fill="black" mask="url(#path-1-inside-1)"/>
</svg>
