<svg width="18" height="20" viewBox="0 0 18 20" fill="none" xmlns="http://www.w3.org/2000/svg">
<path fill-rule="evenodd" clip-rule="evenodd" d="M3 2V0H5V2H13V0H15V2H16C17.1046 2 18 2.89543 18 4V7V8V18C18 19.1046 17.1046 20 16 20H2C0.89543 20 0 19.1046 0 18V8V7V4C0 2.89543 0.895431 2 2 2H3ZM15 3H13H5H3H2C1.44772 3 1 3.44772 1 4V7H17V4C17 3.44772 16.5523 3 16 3H15ZM17 8H1V18C1 18.5523 1.44772 19 2 19H16C16.5523 19 17 18.5523 17 18V8ZM2 9H6V12H2V9ZM7 9H11V12H7V9ZM16 9H12V12H16V9Z" fill="#151515"/>
</svg>
