<svg width="22" height="18" viewBox="0 0 22 18" fill="none" xmlns="http://www.w3.org/2000/svg">
<path fill-rule="evenodd" clip-rule="evenodd" d="M2.5 0C1.11929 0 0 1.11929 0 2.5V6H1V2.5C1 1.67157 1.67157 1 2.5 1H19.5C20.3284 1 21 1.67157 21 2.5V15.5C21 16.3284 20.3284 17 19.5 17H12V18H19.5C20.8807 18 22 16.8807 22 15.5V2.5C22 1.11929 20.8807 0 19.5 0H2.5ZM8 6L13.5 3L19 6L13.5 9L8 6ZM10 10.09V8.09L13.5 10L17 8.09V10.09L13.5 12L10 10.09ZM0 7.5C1.37888 7.5 2.74426 7.77159 4.01818 8.29926C5.2921 8.82694 6.44961 9.60036 7.42462 10.5754C8.39964 11.5504 9.17306 12.7079 9.70074 13.9818C10.2284 15.2557 10.5 16.6211 10.5 18H9.5C9.5 16.7524 9.25428 15.5171 8.77686 14.3645C8.29944 13.2119 7.59967 12.1646 6.71751 11.2825C5.83536 10.4003 4.78809 9.70056 3.63549 9.22314C2.4829 8.74572 1.24756 8.5 0 8.5V7.5ZM2.48744 11.9948C1.69883 11.6681 0.853592 11.5 0 11.5V12.5C0.72227 12.5 1.43747 12.6423 2.10476 12.9187C2.77205 13.1951 3.37837 13.6002 3.88909 14.1109C4.39981 14.6216 4.80494 15.228 5.08134 15.8952C5.35774 16.5625 5.5 17.2777 5.5 18H6.5C6.5 17.1464 6.33187 16.3012 6.00522 15.5126C5.67856 14.7239 5.19978 14.0074 4.59619 13.4038C3.99261 12.8002 3.27606 12.3214 2.48744 11.9948ZM3 18C3 16.0512 1.94876 15 0 15V18H3Z" fill="#151515"/>
</svg>
