<svg width="20" height="12" viewBox="0 0 20 12" fill="none" xmlns="http://www.w3.org/2000/svg">
<path d="M19.7505 5.4297C19.7505 5.4297 14.3352 0 10.0006 0C5.66599 0 0.250676 5.4297 0.250676 5.4297C-0.0820943 5.74455 -0.0850197 6.26139 0.250676 6.57026C0.250676 6.57026 5.66599 12 10.0006 12C14.3352 12 19.7505 6.57026 19.7505 6.57026C20.0803 6.25545 20.0862 5.7416 19.7505 5.4297ZM10.0418 10.3723C7.65953 10.3723 5.72489 8.42372 5.72489 6.01782C5.72489 3.61192 7.65661 1.66337 10.0418 1.66337C12.427 1.66337 14.3587 3.61483 14.3587 6.01782C14.3587 8.42081 12.4241 10.3723 10.0418 10.3723Z" fill="#151515"/>
<path d="M9.99172 3.20337C8.47814 3.20337 7.25018 4.4479 7.25018 5.97763C7.25018 7.50731 8.47814 8.75188 9.99172 8.75188C11.5053 8.75188 12.7332 7.50731 12.7332 5.97763C12.7332 4.44794 11.5053 3.20337 9.99172 3.20337ZM11.0253 5.98656C10.5571 5.98656 10.1743 5.60038 10.1743 5.12218C10.1743 4.64398 10.5571 4.25784 11.0253 4.25784C11.4935 4.25784 11.8763 4.64398 11.8763 5.12218C11.8763 5.60038 11.4994 5.98656 11.0253 5.98656Z" fill="#151515"/>
</svg>
