<svg width="24" height="21" viewBox="0 0 24 21" fill="none" xmlns="http://www.w3.org/2000/svg">
<path fill-rule="evenodd" clip-rule="evenodd" d="M0.5 3C0.5 1.61929 1.61929 0.5 3 0.5H20C21.3807 0.5 22.5 1.61929 22.5 3V9H21.5V3C21.5 2.17157 20.8284 1.5 20 1.5H3C2.17157 1.5 1.5 2.17157 1.5 3V15C1.5 15.8284 2.17157 16.5 3 16.5H16.2727V17.5H14V20H16V21H8V20H10V17.5H3C1.61929 17.5 0.5 16.3807 0.5 15V3ZM18 12H23V19H18V12ZM18 10C17.4477 10 17 10.4477 17 11V20C17 20.5523 17.4477 21 18 21H23C23.5523 21 24 20.5523 24 20V11C24 10.4477 23.5523 10 23 10H18ZM11.8981 7.76393L11 5L10.1019 7.76393H7.19577L9.54692 9.47214L8.64886 12.2361L11 10.5279L13.3511 12.2361L12.4531 9.47214L14.8042 7.76393H11.8981Z" fill="black"/>
</svg>
