<svg width="22" height="18" viewBox="0 0 22 18" fill="none" xmlns="http://www.w3.org/2000/svg">
<mask id="path-1-inside-1" fill="white">
<path fill-rule="evenodd" clip-rule="evenodd" d="M11 0L0 6L4 8.18182V8.2012V14L11 18L18 14V8.2012V8.18182L21.0156 6.53693V14H22V6V5.98438H21.9714L11 0ZM11 12.0137L10.5217 11.7532L5 8.74584V13.4197L11 16.8482L17 13.4197V8.74584L11.4783 11.7532L11 12.0137Z"/>
</mask>
<path fill-rule="evenodd" clip-rule="evenodd" d="M11 0L0 6L4 8.18182V8.2012V14L11 18L18 14V8.2012V8.18182L21.0156 6.53693V14H22V6V5.98438H21.9714L11 0ZM11 12.0137L10.5217 11.7532L5 8.74584V13.4197L11 16.8482L17 13.4197V8.74584L11.4783 11.7532L11 12.0137Z" fill="#151515"/>
<path d="M0 6L-0.478852 5.1221L-2.08833 6L-0.478852 6.8779L0 6ZM11 0L11.4789 -0.877896L11 -1.13909L10.5211 -0.877896L11 0ZM4 8.18182H5V7.58818L4.47885 7.30392L4 8.18182ZM4 14H3V14.5803L3.50386 14.8682L4 14ZM11 18L10.5039 18.8682L11 19.1518L11.4961 18.8682L11 18ZM18 14L18.4961 14.8682L19 14.5803V14H18ZM18 8.18182L17.5211 7.30392L17 7.58818V8.18182H18ZM21.0156 6.53693H22.0156V4.85239L20.5368 5.65904L21.0156 6.53693ZM21.0156 14H20.0156V15H21.0156V14ZM22 14V15H23V14H22ZM22 5.98438H23V4.98438H22V5.98438ZM21.9714 5.98438L21.4925 6.86227L21.7164 6.98438H21.9714V5.98438ZM10.5217 11.7532L11 10.875L10.5217 11.7532ZM11 12.0137L10.5217 12.8919L11 13.1524L11.4783 12.8919L11 12.0137ZM5 8.74584L5.4783 7.86765L4 7.0625V8.74584H5ZM5 13.4197H4V14L4.50386 14.2879L5 13.4197ZM11 16.8482L10.5039 17.7165L11 18L11.4961 17.7165L11 16.8482ZM17 13.4197L17.4961 14.2879L18 14V13.4197H17ZM17 8.74584H18V7.0625L16.5217 7.86765L17 8.74584ZM11.4783 11.7532L11 10.875L11.4783 11.7532ZM0.478852 6.8779L11.4789 0.877896L10.5211 -0.877896L-0.478852 5.1221L0.478852 6.8779ZM4.47885 7.30392L0.478852 5.1221L-0.478852 6.8779L3.52115 9.05971L4.47885 7.30392ZM5 8.2012V8.18182H3V8.2012H5ZM5 14V8.2012H3V14H5ZM11.4961 17.1318L4.49614 13.1318L3.50386 14.8682L10.5039 18.8682L11.4961 17.1318ZM17.5039 13.1318L10.5039 17.1318L11.4961 18.8682L18.4961 14.8682L17.5039 13.1318ZM17 8.2012V14H19V8.2012H17ZM17 8.18182V8.2012H19V8.18182H17ZM20.5368 5.65904L17.5211 7.30392L18.4789 9.05971L21.4945 7.41483L20.5368 5.65904ZM22.0156 14V6.53693H20.0156V14H22.0156ZM22 13H21.0156V15H22V13ZM21 6V14H23V6H21ZM21 5.98438V6H23V5.98438H21ZM21.9714 6.98438H22V4.98438H21.9714V6.98438ZM10.5211 0.877896L21.4925 6.86227L22.4502 5.10648L11.4789 -0.877896L10.5211 0.877896ZM10.0434 12.6314L10.5217 12.8919L11.4783 11.1355L11 10.875L10.0434 12.6314ZM4.5217 9.62404L10.0434 12.6314L11 10.875L5.4783 7.86765L4.5217 9.62404ZM6 13.4197V8.74584H4V13.4197H6ZM11.4961 15.98L5.49614 12.5514L4.50386 14.2879L10.5039 17.7165L11.4961 15.98ZM16.5039 12.5514L10.5039 15.98L11.4961 17.7165L17.4961 14.2879L16.5039 12.5514ZM16 8.74584V13.4197H18V8.74584H16ZM11.9566 12.6314L17.4783 9.62404L16.5217 7.86765L11 10.875L11.9566 12.6314ZM11.4783 12.8919L11.9566 12.6314L11 10.875L10.5217 11.1355L11.4783 12.8919Z" fill="#151515" mask="url(#path-1-inside-1)"/>
</svg>
