<svg width="20" height="20" viewBox="0 0 20 20" fill="none" xmlns="http://www.w3.org/2000/svg">
<path fill-rule="evenodd" clip-rule="evenodd" d="M0 10C0 4.48 4.48 0 10 0C15.52 0 20 4.48 20 10C20 15.52 15.52 20 10 20C4.48 20 0 15.52 0 10ZM1 10C1 14.9613 5.03875 19 10 19C14.9613 19 19 14.9613 19 10C19 5.03875 14.9613 1 10 1C5.03875 1 1 5.03875 1 10ZM11.2531 13.2061H8.46764V16H7.54416V13.2061H6V12.3407H7.54416V11.1127H6V10.2555H7.54416V4H11.2985C12.4592 4 13.365 4.32143 14.016 4.96429C14.672 5.60165 15 6.46978 15 7.56868C15 8.6896 14.6821 9.56046 14.0462 10.1813C13.4104 10.7967 12.5021 11.1072 11.3213 11.1127H8.46764V12.3407H11.2531V13.2061ZM8.46764 10.2555H11.2985C12.1766 10.2555 12.8578 10.0247 13.3423 9.5632C13.8267 9.09614 14.069 8.43683 14.069 7.58516C14.069 6.76099 13.8318 6.10714 13.3574 5.62363C12.8881 5.14011 12.2397 4.88737 11.4121 4.86539H8.46764V10.2555Z" fill="#151515"/>
</svg>
