<svg width="16" height="20" viewBox="0 0 16 20" fill="none" xmlns="http://www.w3.org/2000/svg">
<path fill-rule="evenodd" clip-rule="evenodd" d="M6.23114 17.9359C6.23114 18.908 7.02225 19.6945 8.00003 19.6945C8.97781 19.6945 9.76892 18.908 9.76892 17.9359H6.23114ZM7.99999 4.67122C10.4533 4.67122 12.4444 6.65075 12.4444 9.08982V15.2759H3.55554V9.08982C3.55554 6.65075 5.54665 4.67122 7.99999 4.67122ZM8 0.694458C7.26222 0.694458 6.66667 1.28655 6.66667 2.02004V3.05399C3.87556 3.65492 1.77778 6.12934 1.77778 9.08981V14.3921L0 16.1596V17.0433H16V16.1596L14.2222 14.3921V9.08981C14.2222 6.12934 12.1244 3.65492 9.33333 3.05399V2.02004C9.33333 1.28655 8.73778 0.694458 8 0.694458ZM7.11108 6.43863H8.88886V9.97352H7.11108V6.43863ZM7.11108 11.7409H8.88886V13.5084H7.11108V11.7409Z" fill="#1D1D1D"/>
</svg>
