<svg width="19" height="14" viewBox="0 0 19 14" fill="none" xmlns="http://www.w3.org/2000/svg">
<path fill-rule="evenodd" clip-rule="evenodd" d="M9.5 3.5C9.5 4.87772 8.37772 6 7 6C5.62228 6 4.5 4.87772 4.5 3.5C4.5 2.12228 5.62228 1 7 1C8.37772 1 9.5 2.12228 9.5 3.5ZM7 7C8.93 7 10.5 5.43 10.5 3.5C10.5 1.57 8.93 0 7 0C5.07 0 3.5 1.57 3.5 3.5C3.5 5.43 5.07 7 7 7ZM1 12.25C1 12.0342 1.09991 11.7719 1.44324 11.4547C1.79352 11.1311 2.3267 10.8219 2.9943 10.5546C4.33106 10.0192 5.95464 9.75 7 9.75C8.04536 9.75 9.66894 10.0192 11.0057 10.5546C11.6733 10.8219 12.2065 11.1311 12.5568 11.4547C12.9001 11.7719 13 12.0342 13 12.25V13H1V12.25ZM14 12.25V13V14H13H1H0V13V12.25C0 9.92 4.66 8.75 7 8.75C9.34 8.75 14 9.92 14 12.25ZM15 14H19V12.25C19 9.92 14.34 8.75 12 8.75C11.9604 8.75 11.9202 8.75033 11.8793 8.751C12.6241 9.06085 13.35 9.46476 13.9139 9.9856C14.5174 10.5431 15 11.3008 15 12.25V14ZM11.5 3.5C11.5 4.68 11.044 5.75501 10.299 6.55821C10.8028 6.83956 11.383 7 12 7C13.93 7 15.5 5.43 15.5 3.5C15.5 1.57 13.93 0 12 0C11.383 0 10.8028 0.16044 10.299 0.441792C11.044 1.24499 11.5 2.32 11.5 3.5Z" fill="#151515"/>
</svg>
