<svg width="24" height="24" viewBox="0 0 24 24" fill="none" xmlns="http://www.w3.org/2000/svg">
<mask id="path-1-inside-1" fill="white">
<path fill-rule="evenodd" clip-rule="evenodd" d="M23 12C23 18.0751 18.0751 23 12 23C5.92487 23 1 18.0751 1 12C1 5.92487 5.92487 1 12 1C18.0751 1 23 5.92487 23 12ZM24 12C24 18.6274 18.6274 24 12 24C5.37258 24 0 18.6274 0 12C0 5.37258 5.37258 0 12 0C18.6274 0 24 5.37258 24 12ZM10.016 15.7404H13.4205V14.7308H10.016V13.2981H13.5038C14.947 13.2917 16.0572 12.9295 16.8343 12.2115C17.6114 11.4872 18 10.4712 18 9.16346C18 7.88141 17.5991 6.86859 16.7973 6.125C16.0017 5.375 14.8946 5 13.476 5H8.8873V12.2981H7V13.2981H8.8873V14.7308H7V15.7404H8.8873V19H10.016V15.7404ZM13.476 12.2981H10.016V6.00962H13.6148C14.6263 6.03526 15.4188 6.33013 15.9924 6.89423C16.5722 7.45833 16.8621 8.22115 16.8621 9.18269C16.8621 10.1763 16.566 10.9455 15.9739 11.4904C15.3818 12.0288 14.5492 12.2981 13.476 12.2981Z"/>
</mask>
<path fill-rule="evenodd" clip-rule="evenodd" d="M23 12C23 18.0751 18.0751 23 12 23C5.92487 23 1 18.0751 1 12C1 5.92487 5.92487 1 12 1C18.0751 1 23 5.92487 23 12ZM24 12C24 18.6274 18.6274 24 12 24C5.37258 24 0 18.6274 0 12C0 5.37258 5.37258 0 12 0C18.6274 0 24 5.37258 24 12ZM10.016 15.7404H13.4205V14.7308H10.016V13.2981H13.5038C14.947 13.2917 16.0572 12.9295 16.8343 12.2115C17.6114 11.4872 18 10.4712 18 9.16346C18 7.88141 17.5991 6.86859 16.7973 6.125C16.0017 5.375 14.8946 5 13.476 5H8.8873V12.2981H7V13.2981H8.8873V14.7308H7V15.7404H8.8873V19H10.016V15.7404ZM13.476 12.2981H10.016V6.00962H13.6148C14.6263 6.03526 15.4188 6.33013 15.9924 6.89423C16.5722 7.45833 16.8621 8.22115 16.8621 9.18269C16.8621 10.1763 16.566 10.9455 15.9739 11.4904C15.3818 12.0288 14.5492 12.2981 13.476 12.2981Z" fill="white"/>
<path d="M13.4205 15.7404V16.7404H14.4205V15.7404H13.4205ZM10.016 15.7404V14.7404H9.01598V15.7404H10.016ZM13.4205 14.7308H14.4205V13.7308H13.4205V14.7308ZM10.016 14.7308H9.01598V15.7308H10.016V14.7308ZM10.016 13.2981V12.2981H9.01598V13.2981H10.016ZM13.5038 13.2981V14.2981L13.5082 14.2981L13.5038 13.2981ZM16.8343 12.2115L17.5129 12.9461L17.5162 12.943L16.8343 12.2115ZM16.7973 6.125L16.1114 6.85269L16.1173 6.85822L16.7973 6.125ZM8.8873 5V4H7.8873V5H8.8873ZM8.8873 12.2981V13.2981H9.8873V12.2981H8.8873ZM7 12.2981V11.2981H6V12.2981H7ZM7 13.2981H6V14.2981H7V13.2981ZM8.8873 13.2981H9.8873V12.2981H8.8873V13.2981ZM8.8873 14.7308V15.7308H9.8873V14.7308H8.8873ZM7 14.7308V13.7308H6V14.7308H7ZM7 15.7404H6V16.7404H7V15.7404ZM8.8873 15.7404H9.8873V14.7404H8.8873V15.7404ZM8.8873 19H7.8873V20H8.8873V19ZM10.016 19V20H11.016V19H10.016ZM10.016 12.2981H9.01598V13.2981H10.016V12.2981ZM10.016 6.00962V5.00962H9.01598V6.00962H10.016ZM13.6148 6.00962L13.6401 5.00994L13.6275 5.00962H13.6148V6.00962ZM15.9924 6.89423L15.2912 7.60722L15.2951 7.61095L15.9924 6.89423ZM15.9739 11.4904L16.6467 12.2302L16.6511 12.2262L15.9739 11.4904ZM12 24C18.6274 24 24 18.6274 24 12H22C22 17.5228 17.5228 22 12 22V24ZM0 12C0 18.6274 5.37258 24 12 24V22C6.47715 22 2 17.5228 2 12H0ZM12 0C5.37258 0 0 5.37258 0 12H2C2 6.47715 6.47715 2 12 2V0ZM24 12C24 5.37258 18.6274 0 12 0V2C17.5228 2 22 6.47715 22 12H24ZM12 25C19.1797 25 25 19.1797 25 12H23C23 18.0751 18.0751 23 12 23V25ZM-1 12C-1 19.1797 4.8203 25 12 25V23C5.92487 23 1 18.0751 1 12H-1ZM12 -1C4.8203 -1 -1 4.8203 -1 12H1C1 5.92487 5.92487 1 12 1V-1ZM25 12C25 4.8203 19.1797 -1 12 -1V1C18.0751 1 23 5.92487 23 12H25ZM13.4205 14.7404H10.016V16.7404H13.4205V14.7404ZM12.4205 14.7308V15.7404H14.4205V14.7308H12.4205ZM10.016 15.7308H13.4205V13.7308H10.016V15.7308ZM9.01598 13.2981V14.7308H11.016V13.2981H9.01598ZM13.5038 12.2981H10.016V14.2981H13.5038V12.2981ZM16.1557 11.477C15.6202 11.9718 14.7846 12.2924 13.4993 12.2981L13.5082 14.2981C15.1094 14.291 16.4942 13.8872 17.5129 12.9461L16.1557 11.477ZM17 9.16346C17 10.2625 16.6813 10.9871 16.1525 11.48L17.5162 12.943C18.5416 11.9873 19 10.6798 19 9.16346H17ZM16.1173 6.85822C16.6796 7.37969 17 8.10734 17 9.16346H19C19 7.65548 18.5186 6.35749 17.4773 5.39178L16.1173 6.85822ZM13.476 6C14.718 6 15.5514 6.32482 16.1114 6.85266L17.4832 5.39734C16.4519 4.42518 15.0712 4 13.476 4V6ZM8.8873 6H13.476V4H8.8873V6ZM9.8873 12.2981V5H7.8873V12.2981H9.8873ZM7 13.2981H8.8873V11.2981H7V13.2981ZM8 13.2981V12.2981H6V13.2981H8ZM8.8873 12.2981H7V14.2981H8.8873V12.2981ZM9.8873 14.7308V13.2981H7.8873V14.7308H9.8873ZM7 15.7308H8.8873V13.7308H7V15.7308ZM8 15.7404V14.7308H6V15.7404H8ZM8.8873 14.7404H7V16.7404H8.8873V14.7404ZM9.8873 19V15.7404H7.8873V19H9.8873ZM10.016 18H8.8873V20H10.016V18ZM9.01598 15.7404V19H11.016V15.7404H9.01598ZM10.016 13.2981H13.476V11.2981H10.016V13.2981ZM9.01598 6.00962V12.2981H11.016V6.00962H9.01598ZM13.6148 5.00962H10.016V7.00962H13.6148V5.00962ZM16.6936 6.18125C15.8959 5.39671 14.837 5.04028 13.6401 5.00994L13.5895 7.00929C14.4156 7.03024 14.9418 7.26355 15.2912 7.60721L16.6936 6.18125ZM17.8621 9.18269C17.8621 8.00611 17.4991 6.96501 16.6898 6.17751L15.2951 7.61095C15.6452 7.95166 15.8621 8.4362 15.8621 9.18269H17.8621ZM16.6511 12.2262C17.4957 11.449 17.8621 10.3853 17.8621 9.18269H15.8621C15.8621 9.96722 15.6364 10.442 15.2968 10.7545L16.6511 12.2262ZM13.476 13.2981C14.7118 13.2981 15.8154 12.9862 16.6467 12.2302L15.3011 10.7506C14.9483 11.0715 14.3866 11.2981 13.476 11.2981V13.2981Z" fill="white" mask="url(#path-1-inside-1)"/>
</svg>
