<svg width="20" height="20" viewBox="0 0 20 20" fill="none" xmlns="http://www.w3.org/2000/svg">
<path fill-rule="evenodd" clip-rule="evenodd" d="M16.4377 10.856L16.3674 11.4185L16.814 11.7677L18.5766 13.1461L17.01 15.8563L14.9327 15.022L14.4103 14.8123L13.96 15.15C13.4917 15.5012 13.0053 15.7938 12.4908 16.0047L11.9613 16.2217L11.8801 16.7881L11.5629 19H8.43705L8.11987 16.7881L8.03865 16.2217L7.50922 16.0047C6.98762 15.7909 6.50447 15.5072 6.0497 15.1574L5.59715 14.8093L5.06732 15.022L2.99001 15.8563L1.4234 13.1461L3.186 11.7677L3.63259 11.4185L3.56227 10.856C3.52483 10.5564 3.49999 10.2719 3.49999 10C3.49999 9.72808 3.52483 9.44355 3.56227 9.14404L3.63259 8.58149L3.186 8.23226L1.4234 6.85393L2.99001 4.1437L5.06732 4.97796L5.58967 5.18774L6.03999 4.85C6.50829 4.49877 6.99466 4.20619 7.50922 3.99531L8.03865 3.77832L8.11987 3.21194L8.43705 1H11.5629L11.8801 3.21194L11.9613 3.77832L12.4908 3.99531C13.0124 4.20907 13.4955 4.49281 13.9503 4.84262L14.4028 5.19074L14.9327 4.97796L17.01 4.1437L18.5766 6.85392L16.814 8.23226L16.3674 8.58149L16.4377 9.14404C16.4753 9.4445 16.5 9.71868 16.5 10C16.5 10.2813 16.4753 10.5555 16.4377 10.856ZM17.66 16.73L19.66 13.27C19.78 13.05 19.73 12.78 19.54 12.63L17.43 10.98C17.47 10.66 17.5 10.34 17.5 10C17.5 9.66 17.47 9.34 17.43 9.02L19.54 7.37C19.73 7.22 19.78 6.95 19.66 6.73L17.66 3.27C17.57 3.11 17.4 3.02 17.22 3.02C17.16 3.02 17.1 3.03 17.05 3.05L14.56 4.05C14.04 3.65 13.48 3.32 12.87 3.07L12.49 0.42C12.46 0.18 12.25 0 12 0H7.99999C7.74999 0 7.53999 0.18 7.50999 0.42L7.12999 3.07C6.51999 3.32 5.95999 3.66 5.43999 4.05L2.94999 3.05C2.88999 3.03 2.82999 3.02 2.76999 3.02C2.59999 3.02 2.42999 3.11 2.33999 3.27L0.339992 6.73C0.209992 6.95 0.269992 7.22 0.459992 7.37L2.56999 9.02C2.52999 9.34 2.49999 9.67 2.49999 10C2.49999 10.33 2.52999 10.66 2.56999 10.98L0.459992 12.63C0.269992 12.78 0.219992 13.05 0.339992 13.27L2.33999 16.73C2.42999 16.89 2.59999 16.98 2.77999 16.98C2.83999 16.98 2.89999 16.97 2.94999 16.95L5.43999 15.95C5.95999 16.35 6.51999 16.68 7.12999 16.93L7.50999 19.58C7.53999 19.82 7.74999 20 7.99999 20H12C12.25 20 12.46 19.82 12.49 19.58L12.87 16.93C13.48 16.68 14.04 16.34 14.56 15.95L17.05 16.95C17.11 16.97 17.17 16.98 17.23 16.98C17.4 16.98 17.57 16.89 17.66 16.73ZM7 10C7 8.34229 8.34229 7 10 7C11.6577 7 13 8.34229 13 10C13 11.6577 11.6577 13 10 13C8.34229 13 7 11.6577 7 10ZM10 6C7.79 6 6 7.79 6 10C6 12.21 7.79 14 10 14C12.21 14 14 12.21 14 10C14 7.79 12.21 6 10 6Z" fill="black"/>
</svg>
