<svg width="18" height="18" viewBox="0 0 18 18" fill="none" xmlns="http://www.w3.org/2000/svg">
<path fill-rule="evenodd" clip-rule="evenodd" d="M0 5.92132V12.0787H4L9 17.2098V0.790188L4 5.92132H0ZM7 5.74684V12.2531L4.83 10.0262H2V7.97375H4.83L7 5.74684ZM13.5 8.99997C13.5 7.18355 12.48 5.62369 11 4.86428V13.1254C12.48 12.3763 13.5 10.8164 13.5 8.99997ZM11 0V2.11402C13.89 2.99658 16 5.74686 16 9C16 12.2531 13.89 15.0034 11 15.886V18C15.01 17.0661 18 13.3922 18 9C18 4.60775 15.01 0.933865 11 0Z" fill="#1D1D1D"/>
</svg>
