<svg width="18" height="18" viewBox="0 0 18 18" fill="none" xmlns="http://www.w3.org/2000/svg">
<path fill-rule="evenodd" clip-rule="evenodd" d="M1.39912 0L0 1.39989L4.32635 5.72863L4.03859 6.02648H0.0694598V11.9835H4.03859L9 16.9476V10.4049L13.1477 14.5549C12.5028 15.0414 11.7784 15.4286 10.9846 15.6569V17.7022C12.3142 17.4043 13.5347 16.7887 14.5667 15.9647L16.6009 18L18 16.6001L1.39912 0ZM7.01544 12.1522L4.86218 9.99778H2.05402V8.01212H4.86218L5.73539 7.13843L7.01544 8.41918V12.1522ZM15.946 9.00497C15.946 9.81909 15.7971 10.6034 15.5391 11.3282L17.0573 12.8472C17.613 11.6856 17.9305 10.385 17.9305 9.00497C17.9305 4.75566 14.9636 1.20133 10.9846 0.297852V2.34308C13.8523 3.19691 15.946 5.8577 15.946 9.00497ZM9.00001 1.06232L7.13452 2.92884L9.00001 4.79536V1.06232ZM13.4653 9.00495C13.4653 7.24764 12.4531 5.73854 10.9846 5.00385V6.78101L13.4454 9.24323C13.4554 9.1638 13.4653 9.08438 13.4653 9.00495Z" fill="#1D1D1D"/>
</svg>
