<svg width="32" height="32" viewBox="0 0 32 32" fill="none" xmlns="http://www.w3.org/2000/svg">
<path fill-rule="evenodd" clip-rule="evenodd" d="M14.6667 24H17.3333V21.3333H14.6667V24ZM16 2.66667C8.64001 2.66667 2.66667 8.64 2.66667 16C2.66667 23.36 8.64001 29.3333 16 29.3333C23.36 29.3333 29.3333 23.36 29.3333 16C29.3333 8.64 23.36 2.66667 16 2.66667ZM16 28C9.385 28 4.00001 22.615 4.00001 16C4.00001 9.385 9.385 4 16 4C22.615 4 28 9.385 28 16C28 22.615 22.615 28 16 28ZM16 8C13.0533 8 10.6667 10.3867 10.6667 13.3333H13.3333C13.3333 11.8667 14.5333 10.6667 16 10.6667C17.4667 10.6667 18.6667 11.8667 18.6667 13.3333C18.6667 16 14.6667 15.6667 14.6667 20H17.3333C17.3333 17 21.3333 16.6667 21.3333 13.3333C21.3333 10.3867 18.9467 8 16 8Z" fill="#668099"/>
</svg>
