<svg width="32" height="32" viewBox="0 0 32 32" fill="none" xmlns="http://www.w3.org/2000/svg">
<path opacity="0.6" d="M4 0.5H28C29.933 0.5 31.5 2.067 31.5 4V28C31.5 29.933 29.933 31.5 28 31.5H4C2.067 31.5 0.5 29.933 0.5 28V4C0.5 2.067 2.067 0.5 4 0.5Z" fill="#E0E0E0" stroke="white"/>
<path d="M4.73695 12.2999V16.4799H5.74895C5.79295 16.3809 5.84795 16.2819 5.92495 16.2049C6.05695 16.0619 6.18895 16.0289 6.35395 16.0289C6.51895 16.0289 6.63995 16.0729 6.73895 16.1939C6.85995 16.3369 6.87095 16.5129 6.87095 16.6779V18.3499C6.87095 18.4709 6.85995 18.6799 6.72795 18.8449C6.63995 18.9549 6.50795 19.0319 6.28795 19.0319C6.07895 19.0319 5.91395 18.9329 5.83695 18.8229C5.73795 18.6909 5.72695 18.5039 5.72695 18.3499V18.1409H4.62695V18.4819C4.62695 18.8449 4.70395 19.3069 5.13295 19.6919C5.41895 19.9449 5.80395 20.1099 6.32095 20.1099C6.94795 20.1099 7.33295 19.8679 7.55295 19.6259C7.91595 19.2409 7.97095 18.7789 7.97095 18.4159V16.3369C7.97095 15.9519 7.83895 15.5999 7.65195 15.3909C7.43195 15.1489 7.06895 14.9949 6.70595 14.9949C6.54095 14.9949 6.35395 15.0279 6.18895 15.0939C6.05695 15.1489 5.93595 15.2259 5.83695 15.3139V13.2899H7.97095V12.2999H4.73695Z" fill="#9E9E9E"/>
<path d="M10.6326 12.2999L8.99361 17.8879V18.8119H11.1716V19.9999H12.2716V18.8119H12.7996V17.8219H12.2716V15.6329H11.1716V17.8109H10.1046L11.7106 12.2999H10.6326Z" fill="#9E9E9E"/>
<path d="M13.6903 16.1389V17.1289H16.1543V16.1389H13.6903Z" fill="#9E9E9E"/>
<path d="M20.5593 12.1899H19.4593V13.1799H19.1953C18.7223 13.1799 18.1393 13.2019 17.6553 13.6859C17.1493 14.2029 17.0942 14.8739 17.0942 15.4459V16.7769C17.0942 17.2059 17.1383 17.8549 17.5673 18.3389C18.0623 18.9109 18.7662 18.9549 19.0852 18.9549H19.4593V19.9999H20.5593V18.9549H20.9333C21.2523 18.9549 21.9563 18.9109 22.4513 18.3389C22.8803 17.8549 22.9242 17.2059 22.9242 16.7769V15.4459C22.9242 14.8739 22.8692 14.2029 22.3632 13.6859C21.8792 13.2019 21.2962 13.1799 20.8232 13.1799H20.5593V12.1899ZM20.5593 14.1809H20.6692C20.9662 14.1809 21.2743 14.1699 21.5273 14.3789C21.8353 14.6319 21.8242 15.0059 21.8242 15.2699V16.8759C21.8242 17.1509 21.8463 17.4039 21.6152 17.6679C21.3732 17.9319 21.0982 17.9429 20.8783 17.9429H20.5593V14.1809ZM19.4593 14.1809V17.9429H19.1403C18.9202 17.9429 18.6453 17.9319 18.4033 17.6679C18.1723 17.4039 18.1943 17.1509 18.1943 16.8759V15.2699C18.1943 15.0059 18.1833 14.6319 18.4913 14.3789C18.7443 14.1699 19.0522 14.1809 19.3492 14.1809H19.4593Z" fill="#9E9E9E"/>
<path d="M23.6981 14.4889H24.7981V14.0269C24.7981 13.8619 24.8201 13.6419 25.0071 13.4659C25.1281 13.3449 25.3041 13.2679 25.5131 13.2679C25.7441 13.2679 25.9311 13.3339 26.0521 13.4329C26.2721 13.6199 26.2721 13.8839 26.2721 14.0489V14.5439C26.2721 14.6869 26.2611 15.0059 26.0631 15.2259C25.9091 15.3909 25.6451 15.4899 25.3591 15.4899H25.0621V16.4799H25.3921C25.7221 16.4799 25.8981 16.5789 25.9751 16.6449C26.2501 16.8649 26.2721 17.3159 26.2721 17.5249V18.2069C26.2721 18.4489 26.2721 18.6799 26.0741 18.8669C25.9861 18.9549 25.8211 19.0319 25.5461 19.0319C25.3701 19.0319 25.1061 18.9769 24.9741 18.8339C24.8641 18.7129 24.7981 18.4709 24.7981 18.3059V17.8659H23.6981V18.5809C23.6981 19.2409 24.0941 19.6259 24.1711 19.6919C24.5671 20.0549 25.0731 20.1099 25.4801 20.1099C25.9751 20.1099 26.4811 20.0329 26.8881 19.6589C27.3171 19.2629 27.3721 18.8009 27.3721 18.3719V17.4699C27.3721 17.1399 27.3501 16.8099 27.1521 16.4799C27.0751 16.3479 26.9211 16.1609 26.6021 15.9959C26.7561 15.9079 26.9211 15.7759 27.0421 15.6439C27.3501 15.2809 27.3721 14.8519 27.3721 14.4449V13.7959C27.3721 13.0589 26.9651 12.6849 26.7671 12.5419C26.4261 12.2889 25.9421 12.1899 25.5021 12.1899C24.9301 12.1899 24.5341 12.3659 24.2811 12.5639C23.7641 12.9599 23.6981 13.4879 23.6981 13.7959V14.4889Z" fill="#9E9E9E"/>
</svg>
