<svg width="32" height="32" viewBox="0 0 32 32" fill="none" xmlns="http://www.w3.org/2000/svg">
<path opacity="0.6" d="M4 0.5H28C29.933 0.5 31.5 2.067 31.5 4V28C31.5 29.933 29.933 31.5 28 31.5H4C2.067 31.5 0.5 29.933 0.5 28V4C0.5 2.067 2.067 0.5 4 0.5Z" fill="#E0E0E0" stroke="white"/>
<path d="M19.4666 15.3599C19.4666 13.4932 20.96 12.5866 21.0666 12.5866C20.2133 11.3066 18.88 11.1466 18.4 11.1466C17.28 11.0399 16.16 11.8399 15.5733 11.8399C14.9866 11.8399 14.08 11.1999 13.12 11.1999C11.8933 11.1999 10.72 11.9466 10.1333 13.0132C8.85329 15.2532 9.81329 18.5599 11.04 20.3732C11.68 21.2799 12.3733 22.2399 13.3333 22.2399C14.2933 22.1866 14.6133 21.6532 15.7333 21.6532C16.8533 21.6532 17.1733 22.2399 18.1333 22.2399C19.1466 22.2399 19.7866 21.3332 20.3733 20.4266C21.12 19.4132 21.3866 18.3999 21.3866 18.3466C21.44 18.3466 19.52 17.5999 19.4666 15.3599ZM17.6533 9.91991C18.1333 9.27991 18.5066 8.42658 18.4 7.57324C17.6533 7.62658 16.7466 8.05324 16.2666 8.69324C15.7866 9.22657 15.4133 10.1332 15.52 10.9332C16.2666 11.0399 17.12 10.5599 17.6533 9.91991Z" fill="#151515"/>
</svg>
