<svg width="32" height="32" viewBox="0 0 32 32" fill="none" xmlns="http://www.w3.org/2000/svg">
<mask id="path-1-inside-1" fill="white">
<path fill-rule="evenodd" clip-rule="evenodd" d="M16 4L1.33334 12L6.6667 14.9091V14.9349V22.6667L16 28L25.3334 22.6667V14.9349V14.9091L29.3542 12.7159V22.6667H30.6667V11.9792H30.6285L16 4ZM16 20.0183L15.3623 19.6709L8.00003 15.6611V21.8929L16 26.4643L24 21.8929V15.6611L16.6378 19.6709L16 20.0183Z"/>
</mask>
<path fill-rule="evenodd" clip-rule="evenodd" d="M16 4L1.33334 12L6.6667 14.9091V14.9349V22.6667L16 28L25.3334 22.6667V14.9349V14.9091L29.3542 12.7159V22.6667H30.6667V11.9792H30.6285L16 4ZM16 20.0183L15.3623 19.6709L8.00003 15.6611V21.8929L16 26.4643L24 21.8929V15.6611L16.6378 19.6709L16 20.0183Z" fill="#668099"/>
<path d="M1.33334 12L0.694874 10.8295L-1.45109 12L0.694874 13.1705L1.33334 12ZM16 4L16.6385 2.82947L16 2.48122L15.3615 2.82947L16 4ZM6.6667 14.9091H8.00003V14.1176L7.30517 13.7386L6.6667 14.9091ZM6.6667 22.6667H5.33336V23.4404L6.00518 23.8243L6.6667 22.6667ZM16 28L15.3385 29.1577L16 29.5357L16.6615 29.1577L16 28ZM25.3334 22.6667L25.9949 23.8243L26.6667 23.4404V22.6667H25.3334ZM25.3334 14.9091L24.6949 13.7386L24 14.1176V14.9091H25.3334ZM29.3542 12.7159H30.6875V10.4698L28.7157 11.5454L29.3542 12.7159ZM29.3542 22.6667H28.0209V24H29.3542V22.6667ZM30.6667 22.6667V24H32V22.6667H30.6667ZM30.6667 11.9792H32V10.6458H30.6667V11.9792ZM30.6285 11.9792L29.99 13.1497L30.2885 13.3125H30.6285V11.9792ZM15.3623 19.6709L16 18.5V18.5L15.3623 19.6709ZM16 20.0183L15.3623 21.1892L16 21.5365L16.6378 21.1892L16 20.0183ZM8.00003 15.6611L8.63777 14.4902L6.6667 13.4167V15.6611H8.00003ZM8.00003 21.8929H6.6667V22.6667L7.33851 23.0506L8.00003 21.8929ZM16 26.4643L15.3385 27.622L16 28L16.6616 27.622L16 26.4643ZM24 21.8929L24.6615 23.0506L25.3334 22.6667V21.8929H24ZM24 15.6611H25.3334V13.4167L23.3623 14.4902L24 15.6611ZM16.6378 19.6709L16 18.5V18.5L16.6378 19.6709ZM1.97181 13.1705L16.6385 5.17053L15.3615 2.82947L0.694874 10.8295L1.97181 13.1705ZM7.30517 13.7386L1.97181 10.8295L0.694874 13.1705L6.02823 16.0796L7.30517 13.7386ZM8.00003 14.9349V14.9091H5.33336V14.9349H8.00003ZM8.00003 22.6667V14.9349H5.33336V22.6667H8.00003ZM16.6615 26.8423L7.32822 21.509L6.00518 23.8243L15.3385 29.1577L16.6615 26.8423ZM24.6718 21.509L15.3385 26.8423L16.6615 29.1577L25.9949 23.8243L24.6718 21.509ZM24 14.9349V22.6667H26.6667V14.9349H24ZM24 14.9091V14.9349H26.6667V14.9091H24ZM28.7157 11.5454L24.6949 13.7386L25.9718 16.0796L29.9927 13.8864L28.7157 11.5454ZM30.6875 22.6667V12.7159H28.0209V22.6667H30.6875ZM30.6667 21.3333H29.3542V24H30.6667V21.3333ZM29.3334 11.9792V22.6667H32V11.9792H29.3334ZM30.6285 13.3125H30.6667V10.6458H30.6285V13.3125ZM15.3615 5.17053L29.99 13.1497L31.267 10.8086L16.6385 2.82947L15.3615 5.17053ZM14.7246 20.8419L15.3623 21.1892L16.6378 18.8473L16 18.5L14.7246 20.8419ZM7.36229 16.8321L14.7246 20.8419L16 18.5L8.63777 14.4902L7.36229 16.8321ZM9.33336 21.8929V15.6611H6.6667V21.8929H9.33336ZM16.6616 25.3067L8.66155 20.7352L7.33851 23.0506L15.3385 27.622L16.6616 25.3067ZM23.3385 20.7352L15.3385 25.3067L16.6616 27.622L24.6615 23.0506L23.3385 20.7352ZM22.6667 15.6611V21.8929H25.3334V15.6611H22.6667ZM17.2755 20.8419L24.6378 16.8321L23.3623 14.4902L16 18.5L17.2755 20.8419ZM16.6378 21.1892L17.2755 20.8419L16 18.5L15.3623 18.8473L16.6378 21.1892Z" fill="#668099" mask="url(#path-1-inside-1)"/>
</svg>
