<svg width="48" height="48" viewBox="0 0 48 48" fill="none" xmlns="http://www.w3.org/2000/svg">
<path fill-rule="evenodd" clip-rule="evenodd" d="M7 6C4.23858 6 2 8.23858 2 11V18H4V11C4 9.34315 5.34315 8 7 8H41C42.6569 8 44 9.34315 44 11V37C44 38.6569 42.6569 40 41 40H26V42H41C43.7614 42 46 39.7614 46 37V11C46 8.23858 43.7614 6 41 6H7ZM18 18L29 12L40 18L29 24L18 18ZM22 26.1799V22.1799L29 25.9999L36 22.1799V26.1799L29 29.9999L22 26.1799ZM2 21C4.75776 21 7.48851 21.5432 10.0364 22.5985C12.5842 23.6539 14.8992 25.2007 16.8492 27.1508C18.7993 29.1008 20.3461 31.4158 21.4015 33.9636C22.4568 36.5115 23 39.2422 23 42H21C21 39.5049 20.5086 37.0342 19.5537 34.729C18.5989 32.4238 17.1993 30.3293 15.435 28.565C13.6707 26.8007 11.5762 25.4011 9.27099 24.4463C6.9658 23.4915 4.49512 23 2 23V21ZM6.97488 29.9896C5.39765 29.3363 3.70718 29 2 29V31C3.44454 31 4.87494 31.2845 6.20952 31.8373C7.5441 32.3901 8.75673 33.2004 9.77818 34.2218C10.7996 35.2433 11.6099 36.4559 12.1627 37.7905C12.7155 39.1251 13 40.5555 13 42H15C15 40.2928 14.6637 38.6024 14.0104 37.0251C13.3571 35.4479 12.3996 34.0148 11.1924 32.8076C9.98523 31.6005 8.55212 30.6429 6.97488 29.9896ZM8 42C8 38.1025 5.89752 36 2 36V42H8Z" fill="#668099"/>
</svg>
