<svg width="32" height="32" viewBox="0 0 32 32" fill="none" xmlns="http://www.w3.org/2000/svg">
<path opacity="0.6" d="M4 0.5H28C29.933 0.5 31.5 2.067 31.5 4V28C31.5 29.933 29.933 31.5 28 31.5H4C2.067 31.5 0.5 29.933 0.5 28V4C0.5 2.067 2.067 0.5 4 0.5Z" fill="#E0E0E0" stroke="white"/>
<path d="M18.0565 11.1545H12.3616V21.3871H18.0565V11.1545Z" fill="#FF5F00"/>
<path d="M12.7051 16.2712C12.7051 14.1921 13.6814 12.348 15.1819 11.1548C14.0791 10.287 12.687 9.7627 11.1684 9.7627C7.57065 9.7627 4.65991 12.6734 4.65991 16.2712C4.65991 19.8689 7.57065 22.7796 11.1684 22.7796C12.687 22.7796 14.0791 22.2554 15.1819 21.3876C13.6814 20.2124 12.7051 18.3503 12.7051 16.2712Z" fill="#EB001B"/>
<path d="M25.7221 16.2712C25.7221 19.8689 22.8114 22.7796 19.2136 22.7796C17.695 22.7796 16.3029 22.2554 15.2001 21.3876C16.7187 20.1943 17.6769 18.3503 17.6769 16.2712C17.6769 14.1921 16.7006 12.348 15.2001 11.1548C16.3029 10.287 17.695 9.7627 19.2136 9.7627C22.8114 9.7627 25.7221 12.6915 25.7221 16.2712Z" fill="#F79E1B"/>
</svg>
