<svg width="32" height="32" viewBox="0 0 32 32" fill="none" xmlns="http://www.w3.org/2000/svg">
<path fill-rule="evenodd" clip-rule="evenodd" d="M2.66667 16C2.66667 8.64 8.64 2.66667 16 2.66667C23.36 2.66667 29.3333 8.64 29.3333 16C29.3333 23.36 23.36 29.3333 16 29.3333C8.64 29.3333 2.66667 23.36 2.66667 16ZM4 16C4 22.615 9.385 28 16 28C22.615 28 28 22.615 28 16C28 9.385 22.615 4 16 4C9.385 4 4 9.385 4 16ZM17.6708 20.2747H13.9568V24H12.7255V20.2747H10.6667V19.1209H12.7255V17.4835H10.6667V16.3407H12.7255V8H17.7314C19.279 8 20.4867 8.42857 21.3546 9.28571C22.2293 10.1355 22.6667 11.293 22.6667 12.7582C22.6667 14.2528 22.2427 15.4139 21.395 16.2417C20.5472 17.0623 19.3361 17.4762 17.7617 17.4835H13.9568V19.1209H17.6708V20.2747ZM13.9568 16.3407H17.7314C18.9022 16.3407 19.8104 16.0329 20.4564 15.4176C21.1023 14.7949 21.4253 13.9158 21.4253 12.7802C21.4253 11.6813 21.1091 10.8095 20.4766 10.1648C19.8508 9.52015 18.9863 9.18315 17.8828 9.15385H13.9568V16.3407Z" fill="#668099"/>
</svg>
