<svg width="16" height="16" viewBox="0 0 16 16" fill="none" xmlns="http://www.w3.org/2000/svg">
<path fill-rule="evenodd" clip-rule="evenodd" d="M2 5.94755V10.0525H4.66667L8 13.4732V2.5268L4.66667 5.94755H2ZM6.66667 5.83123V10.1687L5.22 8.68414H3.33333V7.31584H5.22L6.66667 5.83123ZM11 7.99999C11 6.78904 10.32 5.74913 9.33333 5.24286V10.7503C10.32 10.2508 11 9.21093 11 7.99999ZM9.33333 2V3.40935C11.26 3.99772 12.6667 5.83124 12.6667 8C12.6667 10.1688 11.26 12.0023 9.33333 12.5906V14C12.0067 13.3774 14 10.9282 14 8C14 5.07184 12.0067 2.62258 9.33333 2Z" fill="#66CC33"/>
</svg>
