<svg width="16" height="16" viewBox="0 0 16 16" fill="none" xmlns="http://www.w3.org/2000/svg">
<path fill-rule="evenodd" clip-rule="evenodd" d="M2.93275 2L2 2.93326L4.88423 5.81908L4.69239 6.01765H2.04631V9.98897H4.69239L8 13.2984V8.93657L10.7652 11.7033C10.3352 12.0276 9.85226 12.2857 9.32304 12.4379V13.8014C10.2095 13.6029 11.0232 13.1925 11.7111 12.6431L13.0673 14L14 13.0667L2.93275 2ZM6.67696 10.1015L5.24146 8.66518H3.36935V7.34141H5.24146L5.8236 6.75895L6.67696 7.61278V10.1015ZM12.6307 8.00331C12.6307 8.54606 12.5314 9.06895 12.3594 9.55212L13.3716 10.5648C13.742 9.7904 13.9537 8.92333 13.9537 8.00331C13.9537 5.17044 11.9758 2.80088 9.32305 2.19857V3.56205C11.2348 4.13128 12.6307 5.90513 12.6307 8.00331ZM8.00001 2.70821L6.75635 3.95256L8.00001 5.1969V2.70821ZM10.9769 8.0033C10.9769 6.83176 10.3021 5.82569 9.32305 5.3359V6.52067L10.9636 8.16215C10.9702 8.1092 10.9769 8.05625 10.9769 8.0033Z" fill="#FF4D4D"/>
</svg>
