<svg width="32" height="32" viewBox="0 0 32 32" fill="none" xmlns="http://www.w3.org/2000/svg">
<path fill-rule="evenodd" clip-rule="evenodd" d="M15.6667 11.3333C15.6667 13.3544 14.021 15 12 15C9.97895 15 8.33333 13.3544 8.33333 11.3333C8.33333 9.31228 9.97895 7.66667 12 7.66667C14.021 7.66667 15.6667 9.31228 15.6667 11.3333ZM12 16C14.5733 16 16.6667 13.9067 16.6667 11.3333C16.6667 8.76 14.5733 6.66667 12 6.66667C9.42666 6.66667 7.33333 8.76 7.33333 11.3333C7.33333 13.9067 9.42666 16 12 16ZM3.66666 23C3.66666 22.59 3.86366 22.1577 4.3648 21.6948C4.87289 21.2254 5.62462 20.7947 6.53513 20.43C8.35772 19.7 10.5646 19.3333 12 19.3333C13.4354 19.3333 15.6423 19.7 17.4649 20.43C18.3754 20.7947 19.1271 21.2254 19.6352 21.6948C20.1363 22.1577 20.3333 22.59 20.3333 23V24.3333H3.66666V23ZM21.3333 23V24.3333V25.3333H20.3333H3.66666H2.66666V24.3333V23C2.66666 19.8933 8.88 18.3333 12 18.3333C15.12 18.3333 21.3333 19.8933 21.3333 23ZM22.6667 25.3333H28V23C28 19.8933 21.7867 18.3333 18.6667 18.3333C18.6139 18.3333 18.5602 18.3338 18.5057 18.3347C19.4988 18.7478 20.4667 19.2863 21.2185 19.9808C22.0232 20.7242 22.6667 21.7344 22.6667 23V25.3333ZM18 11.3333C18 12.9067 17.3921 14.34 16.3986 15.4109C17.0705 15.7861 17.844 16 18.6667 16C21.24 16 23.3333 13.9067 23.3333 11.3333C23.3333 8.76 21.24 6.66667 18.6667 6.66667C17.844 6.66667 17.0705 6.88059 16.3986 7.25572C17.3921 8.32665 18 9.76 18 11.3333Z" fill="#668099"/>
</svg>
