<svg width="32" height="32" viewBox="0 0 32 32" fill="none" xmlns="http://www.w3.org/2000/svg">
<path fill-rule="evenodd" clip-rule="evenodd" d="M13.3333 22L21.3333 16L13.3333 10V22ZM16 2.66667C8.63999 2.66667 2.66666 8.64 2.66666 16C2.66666 23.36 8.63999 29.3333 16 29.3333C23.36 29.3333 29.3333 23.36 29.3333 16C29.3333 8.64 23.36 2.66667 16 2.66667ZM16 28C9.38499 28 3.99999 22.615 3.99999 16C3.99999 9.385 9.38499 4 16 4C22.615 4 28 9.385 28 16C28 22.615 22.615 28 16 28Z" fill="#668099"/>
</svg>
