<svg width="32" height="32" viewBox="0 0 32 32" fill="none" xmlns="http://www.w3.org/2000/svg">
<path fill-rule="evenodd" clip-rule="evenodd" d="M24.7159 17.1578L24.6315 17.8329L25.1675 18.252L27.6089 20.1611L25.4042 23.9752L22.5272 22.8198L21.9004 22.568L21.36 22.9733C20.7287 23.4468 20.0704 23.8432 19.3716 24.1296L18.7363 24.39L18.6388 25.0697L18.1995 28.1333H13.8005L13.3612 25.0697L13.2637 24.39L12.6284 24.1296C11.9211 23.8398 11.2667 23.4553 10.6516 22.9822L10.1086 22.5644L9.47278 22.8198L6.59576 23.9752L4.39109 20.1611L6.83253 18.252L7.36844 17.8329L7.28406 17.1578C7.2338 16.7557 7.19999 16.3703 7.19999 16C7.19999 15.6297 7.2338 15.2443 7.28406 14.8422L7.36844 14.1671L6.83253 13.748L4.39109 11.8389L6.59576 8.02479L9.47278 9.18022L10.0996 9.43196L10.64 9.02667C11.2713 8.5532 11.9296 8.15676 12.6284 7.87037L13.2637 7.60999L13.3612 6.93033L13.8005 3.86667H18.1995L18.6388 6.93033L18.7363 7.60999L19.3716 7.87037C20.0788 8.16022 20.7333 8.5447 21.3483 9.01782L21.8914 9.43556L22.5272 9.18022L25.4042 8.02479L27.6089 11.8389L25.1675 13.748L24.6315 14.1671L24.7159 14.8422C24.7663 15.2454 24.8 15.6171 24.8 16C24.8 16.3829 24.7663 16.7546 24.7159 17.1578ZM22.08 23.9333L25.4 25.2667C25.48 25.2933 25.56 25.3067 25.64 25.3067C25.8667 25.3067 26.0933 25.1867 26.2133 24.9733L28.88 20.36C29.04 20.0667 28.9733 19.7067 28.72 19.5067L25.9067 17.3067C25.96 16.88 26 16.4533 26 16C26 15.5467 25.96 15.12 25.9067 14.6933L28.72 12.4933C28.9733 12.2933 29.04 11.9333 28.88 11.64L26.2133 7.02667C26.0933 6.81333 25.8667 6.69333 25.6267 6.69333C25.5467 6.69333 25.4667 6.70667 25.4 6.73333L22.08 8.06667C21.3867 7.53333 20.64 7.09333 19.8267 6.76L19.32 3.22667C19.28 2.90667 19 2.66667 18.6667 2.66667H13.3333C13 2.66667 12.72 2.90667 12.68 3.22667L12.1733 6.76C11.36 7.09333 10.6133 7.54667 9.91999 8.06667L6.59999 6.73333C6.51999 6.70667 6.43999 6.69333 6.35999 6.69333C6.13333 6.69333 5.90666 6.81333 5.78666 7.02667L3.11999 11.64C2.94666 11.9333 3.02666 12.2933 3.27999 12.4933L6.09333 14.6933C6.03999 15.12 5.99999 15.56 5.99999 16C5.99999 16.44 6.03999 16.88 6.09333 17.3067L3.27999 19.5067C3.02666 19.7067 2.95999 20.0667 3.11999 20.36L5.78666 24.9733C5.90666 25.1867 6.13333 25.3067 6.37333 25.3067C6.45333 25.3067 6.53332 25.2933 6.59999 25.2667L9.91999 23.9333C10.6133 24.4667 11.36 24.9067 12.1733 25.24L12.68 28.7733C12.72 29.0933 13 29.3333 13.3333 29.3333H18.6667C19 29.3333 19.28 29.0933 19.32 28.7733L19.8267 25.24C20.64 24.9067 21.3867 24.4533 22.08 23.9333ZM11.8667 16C11.8667 13.7161 13.7161 11.8667 16 11.8667C18.2839 11.8667 20.1333 13.7161 20.1333 16C20.1333 18.2839 18.2839 20.1333 16 20.1333C13.7161 20.1333 11.8667 18.2839 11.8667 16ZM16 10.6667C13.0533 10.6667 10.6667 13.0533 10.6667 16C10.6667 18.9467 13.0533 21.3333 16 21.3333C18.9467 21.3333 21.3333 18.9467 21.3333 16C21.3333 13.0533 18.9467 10.6667 16 10.6667Z" fill="#668099"/>
</svg>
