<svg width="24" height="24" viewBox="0 0 24 24" fill="none" xmlns="http://www.w3.org/2000/svg">
<path d="M12 0C5.38125 0 0 5.38125 0 12C0 18.6187 5.38125 24 12 24C18.6187 24 24 18.6187 24 12C24 5.38125 18.6187 0 12 0Z" fill="#675DA9"/>
<path d="M17.8768 6.09227C17.4798 5.72734 15.8728 4.55891 12.2907 4.54291C12.2907 4.54291 8.06839 4.28681 6.01004 6.1755C4.86402 7.32152 4.46067 8.99573 4.41906 11.0765C4.37744 13.1541 4.32302 17.0499 8.078 18.1063H8.0812L8.078 19.7165C8.078 19.7165 8.05559 20.3695 8.48455 20.5007C9.00314 20.6608 9.31045 20.1646 9.80663 19.63C10.0787 19.3355 10.4533 18.9066 10.7382 18.5768C13.3055 18.7913 15.2806 18.2983 15.5047 18.2247C16.0233 18.055 18.9588 17.6805 19.4358 13.7847C19.9287 9.77682 19.1957 7.23829 17.8768 6.09227ZM18.3121 13.503C17.9088 16.7554 15.5303 16.9602 15.0918 17.1011C14.9061 17.1619 13.1711 17.5941 10.9879 17.45C10.9879 17.45 9.36167 19.4123 8.85588 19.9213C8.77585 20.0014 8.68302 20.0334 8.6222 20.0174C8.53576 19.995 8.51016 19.8925 8.51336 19.7421C8.51336 19.5244 8.52616 17.0627 8.52616 17.0627C8.52296 17.0627 8.52296 17.0627 8.52616 17.0627C5.3474 16.1824 5.53307 12.8659 5.56828 11.1309C5.60349 9.39588 5.93001 7.97136 6.89997 7.01421C8.6382 5.43923 12.2267 5.67292 12.2267 5.67292C15.255 5.68572 16.7052 6.59806 17.0413 6.90217C18.1585 7.86252 18.7283 10.1514 18.3121 13.503Z" fill="white"/>
<path d="M13.7665 11.1917C13.6608 11.1917 13.5712 11.1085 13.5648 10.9997C13.5296 10.3114 13.2063 9.9753 12.5468 9.94009C12.4348 9.93368 12.3484 9.83765 12.3548 9.72561C12.3612 9.61357 12.4572 9.52713 12.5692 9.53354C13.44 9.58155 13.9265 10.0809 13.9714 10.9773C13.9778 11.0893 13.8913 11.1853 13.7793 11.1885C13.7729 11.1917 13.7697 11.1917 13.7665 11.1917Z" fill="white"/>
<path d="M14.8037 11.5376H14.8005C14.6884 11.5344 14.5988 11.4416 14.602 11.3296C14.618 10.6381 14.4195 10.0779 13.997 9.61694C13.5776 9.15597 12.9982 8.90628 12.2331 8.85186C12.1211 8.84225 12.0378 8.74622 12.0474 8.63418C12.057 8.52214 12.1531 8.4389 12.2651 8.44851C13.1294 8.51253 13.8113 8.81344 14.2979 9.34484C14.7876 9.87943 15.0245 10.5485 15.0085 11.3392C15.0053 11.4512 14.9125 11.5376 14.8037 11.5376Z" fill="white"/>
<path d="M15.8664 11.9535C15.7544 11.9535 15.6648 11.8639 15.6648 11.7518C15.6552 10.513 15.2998 9.56864 14.5764 8.86118C13.8625 8.16333 12.9566 7.808 11.8906 7.79839C11.7785 7.79839 11.6889 7.70556 11.6889 7.59352C11.6889 7.48148 11.7817 7.39185 11.8906 7.39185C13.0654 7.40145 14.0642 7.79519 14.8549 8.56988C15.6488 9.34456 16.0553 10.4138 16.0681 11.7454C16.0713 11.8607 15.9817 11.9535 15.8664 11.9535C15.8696 11.9535 15.8696 11.9535 15.8664 11.9535Z" fill="white"/>
<path d="M12.5948 13.6981C12.5948 13.6981 12.8797 13.7237 13.0334 13.5348L13.3311 13.1603C13.4752 12.9746 13.8241 12.8562 14.1634 13.0451C14.3523 13.1507 14.6948 13.362 14.9061 13.5188C15.1334 13.6853 15.5943 14.0694 15.5975 14.0726C15.8184 14.2583 15.8696 14.5304 15.7192 14.8217C15.7192 14.8217 15.7192 14.8249 15.7192 14.8281C15.5655 15.1002 15.3574 15.3563 15.0982 15.5932C15.095 15.5932 15.095 15.5964 15.0918 15.5964C14.8773 15.7757 14.666 15.8781 14.4611 15.9005C14.4355 15.9069 14.4067 15.9069 14.3683 15.9069C14.2787 15.9069 14.189 15.8941 14.0994 15.8653L14.093 15.8557C13.7729 15.7661 13.2415 15.542 12.358 15.0522C11.7817 14.7353 11.3048 14.412 10.8982 14.0886C10.6837 13.919 10.4661 13.7301 10.242 13.506C10.2356 13.4996 10.226 13.49 10.2196 13.4836C10.2132 13.4772 10.2036 13.4676 10.1972 13.4612C10.1908 13.4548 10.1812 13.4452 10.1748 13.4388C10.1683 13.4324 10.1587 13.4228 10.1523 13.4164C9.93146 13.1923 9.73939 12.9746 9.56973 12.7602C9.24641 12.3568 8.92309 11.8766 8.60618 11.3004C8.1164 10.4137 7.89232 9.88231 7.80268 9.56539L7.79308 9.55899C7.76427 9.46935 7.75146 9.37972 7.75146 9.29009C7.75146 9.25167 7.75146 9.22286 7.75787 9.19725C7.78348 8.98918 7.88591 8.7811 8.06198 8.56662C8.06198 8.56342 8.06518 8.56342 8.06518 8.56022C8.30207 8.29773 8.55816 8.09285 8.83026 7.93919C8.83026 7.93919 8.83346 7.93919 8.83666 7.93919C9.12477 7.78874 9.39687 7.83996 9.58574 8.06084C9.58574 8.06084 9.97308 8.52501 10.1395 8.75229C10.2964 8.96677 10.5077 9.30609 10.6133 9.49496C10.8022 9.83429 10.6837 10.1832 10.4981 10.3273L10.1235 10.625C9.93466 10.7786 9.96027 11.0635 9.96027 11.0635C9.96027 11.0635 10.5141 13.1699 12.5948 13.6981Z" fill="white"/>
</svg>
