<svg width="32" height="32" viewBox="0 0 32 32" fill="none" xmlns="http://www.w3.org/2000/svg">
<path opacity="0.6" d="M4 0.5H28C29.933 0.5 31.5 2.067 31.5 4V28C31.5 29.933 29.933 31.5 28 31.5H4C2.067 31.5 0.5 29.933 0.5 28V4C0.5 2.067 2.067 0.5 4 0.5Z" fill="#E0E0E0" stroke="white"/>
<path fill-rule="evenodd" clip-rule="evenodd" d="M10.197 11.0203C8.08572 12.5601 8.0002 13.1921 8.0002 14.1882L8 21.8268C8 22.5419 8.59909 23.1273 9.33104 23.1273H21.8085V12.6612H19.617V18.9391L9.71838 22.0857L17.5477 16.8745L17.5477 5.3894C17.5477 5.3894 11.945 9.74557 10.197 11.0203ZM13.9699 12.4433C14.4277 11.9103 15.0964 11.7221 15.4636 12.0232C15.8307 12.3242 15.7573 13.0004 15.2995 13.5334C14.8418 14.0663 14.173 14.2543 13.8058 13.9532C13.4387 13.6523 13.5122 12.9763 13.9699 12.4433Z" fill="#FECF1E"/>
</svg>
