<svg width="24" height="24" viewBox="0 0 24 24" fill="none" xmlns="http://www.w3.org/2000/svg">
<path d="M12 0C5.38125 0 0 5.38125 0 12C0 18.6187 5.38125 24 12 24C18.6187 24 24 18.6187 24 12C24 5.38125 18.6187 0 12 0Z" fill="#EA4335"/>
<path d="M4.00501 12.0103C3.84512 7.80045 7.53255 3.91006 11.7466 3.85959C13.8944 3.6764 15.984 4.51045 17.6094 5.87078C16.9426 6.60389 16.2642 7.32853 15.5396 8.00693C14.1087 7.13758 12.3858 6.47506 10.7135 7.06345C8.01611 7.83151 6.38259 11.0163 7.38078 13.6551C8.20742 16.411 11.5595 17.9235 14.1867 16.7658C15.547 16.2787 16.4439 15.0235 16.8374 13.6749C15.2784 13.6438 13.719 13.6632 12.1599 13.6201C12.156 12.6925 12.1522 11.7685 12.156 10.8409C14.756 10.837 17.3598 10.8292 19.9636 10.8525C20.1235 13.1253 19.7882 15.5576 18.3107 17.3817C16.2875 19.9855 12.5496 20.7497 9.50881 19.7282C6.28164 18.6683 3.93477 15.4171 4.00501 12.0103Z" fill="white"/>
</svg>
