<svg width="24" height="24" viewBox="0 0 24 24" fill="none" xmlns="http://www.w3.org/2000/svg">
<g clip-path="url(#clip0)">
<path d="M24.0047 0V24H0V0H24.0047ZM20.0576 17.7893H6.17833V3.93951H3.58401V20.4H20.0576V17.7893ZM91 17.561C91 17.561 90.2446 18.6029 89.7936 19.0537C88.8215 20.0254 87.5858 20.3122 86.2447 20.2654C83.7441 20.1776 81.9463 18.4098 81.8057 15.9102C81.7413 14.7688 81.835 13.6449 82.3913 12.6146C83.1409 11.239 84.3063 10.5015 85.8641 10.3668C86.6371 10.3024 87.4101 10.3493 88.1422 10.6302C89.6121 11.1863 90.4437 12.2985 90.7482 13.7971C90.877 14.441 90.8887 15.1083 90.9531 15.8166C89.7468 15.8166 88.6224 15.8166 87.498 15.8166C86.3794 15.8166 85.255 15.8166 84.1365 15.8166C84.0194 16.6654 84.6987 17.76 85.5479 18.1229C85.9988 18.3102 86.4673 18.3629 86.9533 18.2985C87.457 18.2341 87.8962 18.041 88.23 17.6605C88.5462 17.3034 89.1436 16.5366 89.1436 16.5366C89.1436 16.5366 90.3734 17.1805 91 17.5141C91 17.52 91 17.561 91 17.561ZM84.277 14.0195C85.7235 14.0195 87.1525 14.0195 88.5872 14.0195C88.4818 13.0302 87.5917 12.3161 86.4614 12.2985C85.4014 12.2868 84.4176 13.0595 84.277 14.0195ZM66.4565 19.9844C66.4565 19.9844 67.9089 19.9844 68.6409 19.9844C68.6409 19.8615 68.635 16.6829 68.6468 15.1902C68.6526 14.5288 68.6878 13.8615 68.9454 13.241C69.209 12.6146 69.7712 12.2693 70.4563 12.3044C71.0654 12.3337 71.487 12.6615 71.6744 13.3405C71.7857 13.7561 71.8501 14.201 71.856 14.6341C71.8735 16.3024 71.8618 19.9961 71.8618 19.9961H74.0872C74.0872 19.9961 74.0755 16.5424 74.0931 14.9912C74.0989 14.318 74.1458 13.6449 74.4854 13.0361C74.7782 12.5093 75.3756 12.2341 76.0022 12.322C76.6347 12.4098 76.9919 12.72 77.1207 13.3815C77.2144 13.8673 77.2613 14.3649 77.2671 14.8624C77.2847 16.4605 77.273 20.002 77.273 20.002H79.4808C79.4808 20.002 79.4866 16.0039 79.4749 14.1717C79.4749 13.8029 79.4574 13.4283 79.3988 13.0654C79.2817 12.2985 79.0357 11.5902 78.4325 11.0517C77.2906 10.0273 75.0652 10.1151 73.9115 11.2273C73.7592 11.3737 73.6187 11.5376 73.4606 11.7015C72.8867 10.8995 72.1429 10.4312 71.1474 10.3493C70.1284 10.2673 69.3495 10.6888 68.6819 11.4205C68.6643 11.4029 68.6468 11.3854 68.6292 11.362C68.6292 11.1161 68.6292 10.6068 68.6292 10.6068H66.4565V19.9844ZM53.6958 11.6546C53.6958 11.2683 53.6958 10.6127 53.6958 10.6127H55.9036V19.9902H53.7017C53.7017 19.9902 53.7017 19.399 53.7017 19.0712C53.6314 19.1122 53.5845 19.1239 53.5552 19.1532C51.2537 21.2663 47.4238 20.3239 46.4809 16.9522C46.0066 15.2663 46.153 13.6273 47.1954 12.1463C48.677 10.0449 51.652 9.69366 53.5143 11.4966C53.5611 11.5317 53.6021 11.5727 53.6958 11.6546ZM53.8949 15.2898C53.7895 14.839 53.7368 14.3649 53.567 13.9434C53.1453 12.9073 52.3489 12.3395 51.2245 12.3102C50.1352 12.281 49.327 12.802 48.8527 13.7737C48.3432 14.8098 48.3725 15.8751 48.8761 16.8995C49.6316 18.439 51.652 18.8137 52.9169 17.6605C53.5904 17.0341 53.8363 16.2146 53.8949 15.2898ZM37.5443 15.8166C37.4448 17.3034 38.8385 18.5151 40.3377 18.2985C40.9058 18.2166 41.3801 17.9824 41.7432 17.5434C42.0185 17.2156 42.2703 16.8702 42.5572 16.5132C43.1546 16.841 43.7636 17.1805 44.3961 17.5259C43.5762 18.9073 42.528 19.9434 40.8824 20.1893C39.8458 20.3473 38.8151 20.3063 37.843 19.8673C36.2735 19.1532 35.4712 17.8712 35.2545 16.2029C35.0964 14.9854 35.196 13.7854 35.7757 12.6732C36.5253 11.2273 37.7376 10.4722 39.3539 10.3551C40.2089 10.2907 41.0522 10.3727 41.8428 10.7415C43.2073 11.3795 43.9452 12.5034 44.197 13.9493C44.3024 14.5463 44.3083 15.161 44.3668 15.8107C43.1663 15.8107 42.0478 15.8107 40.9292 15.8107C39.8107 15.8166 38.6863 15.8166 37.5443 15.8166ZM37.6966 14.0137C39.1489 14.0137 40.5837 14.0137 42.0243 14.0137C41.7725 12.9015 40.9351 12.2634 39.7872 12.2985C38.7507 12.3337 37.8371 13.0771 37.6966 14.0137ZM30.6984 19.9902H32.8769V3.71122H30.6984V19.9902ZM64.9046 10.8937C63.4523 10.0917 62.1171 10.0741 60.8872 11.4205C60.8872 11.0868 60.8872 10.6127 60.8872 10.6127H58.697V19.9902H60.8931C60.8931 19.9902 60.8931 16.4956 60.8931 14.9151C60.8931 14.3356 60.9692 13.7678 61.2562 13.2468C61.5314 12.7434 61.9648 12.4917 62.5329 12.4566C63.0365 12.4215 63.464 12.6205 63.8915 12.8956C64.2312 12.2224 64.5591 11.5668 64.9046 10.8937Z" fill="#1A80E6"/>
</g>
<defs>
<clipPath id="clip0">
<rect width="24" height="24" fill="white" transform="matrix(1 0 0 -1 0 24)"/>
</clipPath>
</defs>
</svg>
